<?xml version="1.0" encoding="UTF-8"?>
<svg id="Layer_2" data-name="Layer 2" xmlns="http://www.w3.org/2000/svg" viewBox="0 0 1136 960">
  <defs>
    <style>
      .cls-1 {
        fill: #da291c;
      }

      .cls-1, .cls-2, .cls-3, .cls-4, .cls-5 {
        stroke-width: 0px;
      }

      .cls-2 {
        fill: none;
      }

      .cls-3 {
        fill: #fff;
      }

      .cls-4 {
        fill: #b20000;
      }

      .cls-5 {
        fill: #410e44;
      }
    </style>
  </defs>
  <g id="Layer_1-2" data-name="Layer 1">
    <g>
      <path class="cls-2" d="m270.32,637.44c6.41-2.3,11.54-9.01,9.22-16.01-2.83-8.53-17.61-8.24-24.3-5.46-1.68.7-3.24,1.69-4.63,2.89,0,4.4.72,8.85,2.95,12.61,3.53,5.94,10.28,8.3,16.76,5.97Z"/>
      <path class="cls-2" d="m265.86,676.17c-6.68,3.74-12.98,10.39-13.68,18.38-.69,7.8,5.2,13.1,12.38,14.48,6.77,1.3,13.94-.03,20.43-2.06,6.94-2.17,13.94-5.46,19.14-10.66,5.7-5.69,7.95-13.48,5.17-21.2-.83-2.29-1.99-4.43-3.38-6.43-13.7.31-27.92.68-40.05,7.48Z"/>
      <path class="cls-2" d="m168.57,195.23c.44-1.43.66-2.32.67-2.36l.44-1.82-.64-.16c-.2,1.56-.37,3.02-.48,4.34Z"/>
      <path class="cls-2" d="m232.65,509.9c22.31,6.37,40.03,10.75,63,13.99,4.3.61,8.69,1.19,12.64,2.98,2.33-16.59,8.49-31.56,16.14-44.66-.01,0-.02,0-.03-.01-5.42-2.67-17.75-9.51-15.28-15.39l.15-.25c1.08-1.29,2.93-2.4,5.98-1.75-2.83-1.91-5.87-3.92-9.07-6.03-6.48,8.2-12.65,15.95-19.08,23.08,1.07,1.95,1.91,4.11,2.47,6.42,1.62,6.74.96,13.63.31,20.29l-.95,9.82c-.09.94-.2,2.11-.92,3.08l-1.61-1.18c.39-.53.47-1.36.54-2.09l.95-9.82c.63-6.5,1.28-13.22-.27-19.63-1.31-5.42-5-12-11.44-14.26-5.82-2.03-12.94.1-17.31,5.18-4.01,4.67-5.43,11-6.21,16-.25,1.56-.45,3.14-.66,4.71-.57,4.34-1.16,8.83-2.59,13.08l-1.9-.64c1.37-4.07,1.95-8.46,2.5-12.71.21-1.59.42-3.18.66-4.76.61-3.9,1.6-8.58,3.83-12.79-3.43-5.02-6.89-10.09-10.27-15.26-2.56.22-5.08.33-7.57.33-7.27,0-14.33-.9-21.6-2.4,6.27,16.25,11.41,33.33,14.13,43.69.25.11.5.23.74.37l2.71.61Z"/>
      <path class="cls-2" d="m357.15,645.43c1.17-8.65-6.67-15.1-14.29-17.04-4.51-1.14-9.2-1.16-13.82-.89-3.85.22-8.48.14-11.96,2.03-7.55,4.1-5.9,16.8-3.62,23.51,1.48,4.38,3.81,8.42,6.61,12.09,7.32-.5,14.81-1.44,21.69-4.08,6.76-2.59,14.35-7.91,15.4-15.63Z"/>
      <path class="cls-2" d="m433.04,810.68c-2.96,1.82-5.8,3.79-8.48,5.92.75,2.54,1.45,5.09,2.07,7.67.9-.55,1.83-1.05,2.77-1.51,1.87-3.68,3.03-7.81,3.63-12.08Z"/>
      <path class="cls-2" d="m466.49,818.52c26.02-.12,52.03-.09,78.05-.06,3.2,0,6.4.01,9.6.02-2.98-4.63-7.23-8.47-11.76-11.51-12.45-8.36-28.09-12.04-42.9-12.94-14.9-.91-29.93,1.22-44.02,6.13-6.42,2.24-13.02,5.13-19.26,8.66-.44,4.25-1.36,8.46-2.91,12.36,10.36-3.5,22.54-2.61,33.21-2.66Z"/>
      <path class="cls-2" d="m351.91,437.59c7.06-7.46,8.59-8.75,12.83-10.69,1.01-.46,1.89-.75,2.68-.9,9.32-15.31,15.11-32.93,16.65-51.32,2.47-29.46-5.85-58.05-23.42-80.5-17.55-22.42-42.24-36.03-69.51-38.31-26.61-2.23-52.59,6.59-73.38,24.86,2.76,18.15,6.07,37.42,13.12,53.25,2.36,5.3,12.13,15.02,25.2,26.48,4.41-3.07,9.88-4.82,15.41-3.43,4.3,1.08,8.24,4.1,11.09,8.32.49-.45,1-.89,1.53-1.32,7.5-6.04,20.22-8.18,28.52-1.29,1.5,1.25,2.81,2.76,3.92,4.48,4.19-3.51,8.68-5.74,13.12-6.48,6.38-1.07,12.84,1.11,16.45,5.54,2.66,3.26,4.01,7.78,4.15,13.82.31,13.79-4.85,28.1-15.69,43.44,8.25,6.43,14.53,11.37,17.42,13.91l-.08.14Z"/>
      <path class="cls-2" d="m626.75,850.99c-1.03-2.15-3.2-3.24-5.44-3.71-4-.84-8.56-.12-12.58.15-4.16.27-8.32.63-12.48,1.02,9.26,1.4,19.35,3.9,27.46,8.84,2.36-1.37,4.49-3.23,3.03-6.29Z"/>
      <path class="cls-2" d="m407.94,779.83c6.7,10.6,11.96,22.06,15.76,33.99.02-.02.05-.03.07-.05,3.09-2.36,6.32-4.55,9.64-6.56.47-6.25-.12-12.6-1.26-18.09-1.76-8.44-5.05-17.91-10.85-24.47-5.3-5.99-14.04-7.16-21.63-6.71-4.45.26-8.81,1.24-12.98,2.8,2.25.82,4.44,1.82,6.49,3.06,6.4,3.86,10.83,9.8,14.76,16.02Z"/>
      <path class="cls-2" d="m617.02,863.91c-14.85,6.62-30.7,10.48-46.79,12.52-34.57,4.38-69.33.3-103.88-2.08-18.52-1.27-37.15-2.07-55.7-.73-9.31.67-18.58,1.88-27.71,3.84-4.08.87-8.47,2.02-11.5,5.11-4.01,4.1-.91,7.79,3.59,9.38,16.78,5.94,35.69,6.45,53.29,5.99,18.27-.48,36.49-2.32,54.74-3.39,38.46-2.25,77.02-2.91,115.54-1.96,8.03.2,16.79,1.44,24.73-.25,8.74-1.87,13.26-9.49,10.98-18.11-1.53-5.79-5.73-10.08-10.65-13.26-2.32,1.2-4.81,2.12-6.64,2.94Z"/>
      <path class="cls-2" d="m281.14,366.77c-2.59-3.98-6.2-6.82-10.13-7.81-4.75-1.19-9.48.24-13.38,2.84,5.31,4.62,11.12,9.5,17.17,14.47,1.58-3.36,3.63-6.64,6.34-9.5Z"/>
      <path class="cls-2" d="m283.7,372.03c-.42-1.21-.93-2.37-1.51-3.46-2.48,2.72-4.36,5.83-5.81,9.01,3.1,2.54,6.25,5.1,9.43,7.65-.17-4.49-.65-8.97-2.12-13.21Z"/>
      <path class="cls-2" d="m222.05,418.52c3.3-1.67,7.01-3.16,10.38-4.51,1.13-.45,2.23-.9,3.28-1.33.05-.02.12-.04.18-.07-6.27-4.36-12.26-8.66-17.76-12.82.68,6.1,2,12.35,3.93,18.73Z"/>
      <path class="cls-2" d="m257.36,478.36c4.89-5.69,12.91-8.06,19.49-5.76,3.61,1.26,6.79,3.92,9.17,7.48,6.22-6.92,12.21-14.45,18.49-22.4-6.72-4.39-14.11-9.15-21.82-14.11-4.76,4.23-13.95,5.29-19.52,5.93-1.64.19-3.62.32-5.72.45-5.56.36-13.17.85-14.46,2.84-.06.1-.12.22-.14.39,7.46.68,15.04.1,22.53-1.73.45-.11.99-.26,1.6-.42,4.38-1.19,11-2.99,12.6.55l.08.28c.86,6.51-10.22,9.96-13.86,11.1-6.85,2.13-13.21,3.45-19.3,4.13,3.01,4.59,6.09,9.11,9.15,13.58.52-.8,1.08-1.57,1.72-2.3Z"/>
      <path class="cls-2" d="m301.34,393.29c1.76-9.09,6.39-17.66,13.03-24.11.22-.21.44-.42.66-.63-1.03-1.66-2.27-3.1-3.68-4.28-7.51-6.23-19.11-4.23-25.99,1.31-.6.48-1.16.98-1.71,1.5.76,1.34,1.41,2.78,1.93,4.3,1.75,5.04,2.17,10.3,2.29,15.52,4.33,3.47,8.68,6.93,12.97,10.31.06-1.21.22-2.51.49-3.91Z"/>
      <path class="cls-2" d="m348.27,380.14c-.13-5.58-1.34-9.7-3.7-12.6-3.17-3.88-8.89-5.78-14.57-4.83-4.18.7-8.44,2.85-12.43,6.27,1.78,3.42,2.83,7.5,3,11.9.25,6.71-1.36,13.24-2.92,19.55-.64,2.6-1.5,5.43-3.48,7.23,6.83,5.33,13.23,10.3,18.83,14.65,10.54-14.95,15.57-28.85,15.27-42.17Z"/>
      <path class="cls-2" d="m246.21,421.51c-3.19.48-6.48.98-8.88,1.94.03.22.09.42.21.54.51.47,2.33.21,3.94-.03.64-.09,1.31-.19,2-.27l7.5-.82c-.85-.57-1.71-1.14-2.56-1.71-.72.12-1.46.23-2.22.34Z"/>
      <path class="cls-2" d="m190.85,374.91c1.07,16.01,2.93,33.24,4.73,47.93,10.13.85,18.57.29,23.37-2.62.42-.25.86-.5,1.3-.75-2.23-7.29-3.67-14.42-4.31-21.35-11.27-8.66-20.27-16.65-25.1-23.22Z"/>
      <path class="cls-2" d="m244.55,438.3c-.4.1-.62.43-.69.72-.03.14-.08.48.19.71.62.53,1.83.35,3.11.16.64-.1,1.3-.19,1.94-.21,4.26-.11,10.15-1.37,15.85-2.59,2.02-.43,3.98-.85,5.84-1.21-1.47-.95-2.94-1.91-4.42-2.87l-21.82,5.3Z"/>
      <path class="cls-2" d="m302.83,398.77c3.3,2.6,6.56,5.15,9.74,7.64,1.75-1.39,2.52-3.93,3.14-6.46,1.53-6.18,3.1-12.57,2.86-19-.15-3.91-1.03-7.53-2.54-10.59-.09.08-.18.17-.26.25-6.35,6.18-10.78,14.37-12.47,23.06-.37,1.91-.52,3.59-.48,5.09Z"/>
      <path class="cls-2" d="m350.12,440.6h-.01s-.01,0-.01,0c0,0,.02,0,.03,0Z"/>
      <path class="cls-2" d="m567.39,77.68c-.46-.26-1-.22-1.47.13-1.32.97-.61,3.29-.07,4.59l6.88,16.53v-16.02c-1.51-2.11-3.21-3.98-5.34-5.22Z"/>
      <path class="cls-2" d="m957.73,400.7c.23.08.43.19.64.3l-2.12-3.33c42.96-44.67,41.27-54.82,29.41-69.88-10.7-13.58-29.38-23.53-46.92-32.48l-12.93,46.62s2.49,35.37,10.62,53.11c1.09,2.37,2.54,5.59,4.24,9.37l12.43-3.45c1.26-.35,2.99-.83,4.62-.26Z"/>
      <path class="cls-2" d="m572.73,114.32c-.06-.12-.13-.24-.19-.35-.27-.51-.52-.99-.8-1.38-2.39-3.41-4.77-8.72-7.08-13.86-2.81-6.25-6.3-14.02-8.56-14.45-.18-.04-.42-.03-.76.29-4.54,5.64,1.42,16.08,4.63,21.69.75,1.31,1.74,2.85,2.79,4.48,3.54,5.5,7.19,11.18,6.16,14.38-.29.91-.94,1.58-1.87,1.95l-.64.25-.47-.5c-5-5.4-9.06-11.81-12.06-19.04-.17-.42-.38-.94-.6-1.52-.88-2.28-3.19-8.28-4.97-7.98-2.48,1.9-2.31,7.01.5,15.18,3.96,11.5,8.78,20.07,14.76,27.35,2.96-.69,6.01-1.13,9.14-1.31v-25.18Z"/>
      <path class="cls-2" d="m555.83,821.48c-20.85-.03-41.7-.05-62.54-.03-10.15.01-20.3.02-30.44.09-4.29.03-8.58,0-12.86.2-6.23.28-12.79.97-18.59,3.48-.97,1.76-2.11,3.42-3.41,4.95.96,4.22,2.03,8.36,3.83,12.17,7.17,3.08,14.64,5.47,22.23,7.27,3.41.81,6.85,1.5,10.3,2.1,3.92,0,7.85-.04,11.77-.15,19.53-.54,39-2.34,58.49-3.6,6.4-.41,12.84-.83,19.3-1.1.16-.25.32-.49.47-.74,4.05-6.77,5.24-14.84,2.47-22.31-.29-.79-.63-1.57-1-2.32Z"/>
      <path class="cls-2" d="m600.57,109.86c-.59-1.86-1.19-3.79-1.67-5.73l-.28-1.15c-.85-3.51-2.62-10.82-4.86-11.5-.15-.05-.59-.18-1.36.44-.73,3.21.1,6.06.9,8.81.88,3.04,1.79,6.18.37,9.48l-.07.17-.13.13c-.88.9-1.73,1.28-2.6,1.16-1.55-.22-2.46-1.94-3.52-3.93-.28-.52-.57-1.07-.88-1.61l-9.72-16.76v19.15l1.87,4.5c.41,1,.23,2.21-.47,3.1-.38.48-.87.79-1.4.94v22.36c9.38.16,18.02,2.74,24.95,7.01l10.48-11.44c-5.81-6.76-8.82-11.7-9.14-14.98-.34-3.45-1.37-6.71-2.45-10.17Z"/>
      <path class="cls-2" d="m576.76,113.8l-.03-.06v.85c.1-.24.13-.53.03-.78Z"/>
      <path class="cls-2" d="m555.36,850.05c.91-.12,1.82-.23,2.73-.35-.85.03-1.7.06-2.55.09-.06.09-.12.17-.18.26Z"/>
      <path class="cls-2" d="m423.95,826.12c-.6-2.49-1.24-4.96-1.93-7.41-1.79,1.55-3.5,3.17-5.08,4.88-3.96,4.26-2.67,7.85.44,10.76,1.37-3.25,3.89-6.13,6.58-8.23Z"/>
      <path class="cls-2" d="m378.02,761.54c-13.26-2.28-27.48,1.35-38.38,9.1-3.45,10.71-7.79,21.09-3.76,32.63,3.04,8.69,8.99,15.36,16.28,20.34.08-3.7-.31-7.47-.63-11.05-.64-7.32-.47-14.38,1.84-21.41,4.1-12.48,13.27-23.16,24.65-29.63Z"/>
      <path class="cls-2" d="m411.32,828.07c.47-5.08,5.54-9.15,9.82-12.34-1.12-3.68-2.37-7.32-3.8-10.91-3.34-8.37-7.48-16.42-12.32-24.01-4.91-7.7-10.62-14.07-19.4-17.27-1.02-.37-2.04-.7-3.08-.99-7.54,3.65-14.21,9.2-19.15,15.86-4.04,5.44-6.99,11.67-8.4,18.31-1.8,8.46.09,16.8.2,25.31.01,1.14-.02,2.31-.1,3.47,5.57,3.32,11.74,5.77,17.91,7.46,7.79,2.13,15.93,3.59,23.98,4.2,5.76.44,11.82.32,17.36-1.45-1.98-2.06-3.29-4.56-3.01-7.62Z"/>
      <path class="cls-2" d="m339.45,815.84c-4.13-5.34-7.11-11.62-8.04-18.34-1.05-7.61.94-14.97,3.34-22.13.12-.35.24-.71.36-1.07-10.63,9.7-16.79,23.95-16.92,38.35-.07,8.38,1.63,17.89,7.56,24.21,6.01,6.4,16.85,8,22.49.24,2.2-3.03,3.25-6.45,3.68-10-4.7-3.01-8.95-6.7-12.47-11.26Z"/>
      <path class="cls-2" d="m339.93,752.25c-.69-9.11-7.23-16.08-13.33-22.28-5.49-5.58-13.09-12.02-21.55-9.93-7.23,1.78-11.79,9.57-11.78,16.7.01,8.03,5.77,14.92,12.46,18.72,8.15,4.63,17.87,4.91,26.91,3.36,2.41-.41,4.81-.94,7.19-1.56.17-1.66.23-3.32.1-5Z"/>
      <path class="cls-2" d="m448.63,851.31c-4.88-1.33-9.69-2.9-14.4-4.74.82,1.18,1.73,2.31,2.79,3.38.27.28.57.52.85.79,3.57.32,7.16.39,10.44.56.11,0,.21,0,.32.01Z"/>
      <path class="cls-2" d="m486.65,854.16c6.37.34,12.75.41,19.12.27,15.21-.34,30.32-1.97,45.4-3.85.17-.2.34-.4.51-.61-5.25.25-10.49.58-15.7.91-16.45,1.05-32.87,2.49-49.33,3.28Z"/>
      <path class="cls-2" d="m470.75,855.7c-2.19-.29-4.37-.62-6.55-.98-4.37,0-8.75-.09-13.12-.28-2.99-.13-6.07-.21-9.16-.4,4.59,3.18,9.88,5.38,15.19,6.99,17.03,5.17,35.7,6.46,53.4,5.49,13.12-.72,27.38-3.6,37.23-12.41-25.6,2.97-51.3,4.98-76.99,1.6Z"/>
      <path class="cls-2" d="m422.42,835.15c-.74.49-1.49.94-2.26,1.35,2.46,1.63,5.29,2.98,7.61,4.04-.94-2.52-1.67-5.14-2.3-7.81-.95.86-1.95,1.68-3.05,2.42Z"/>
      <path class="cls-2" d="m422.69,841.36c-1.01-.52-2.09-1.09-3.17-1.73.03,2.69,1.33,5.28,4.56,7.26,2.7,1.66,5.8,2.62,9.04,3.22-1.42-1.72-2.58-3.56-3.57-5.49-2.32-1.02-4.61-2.1-6.87-3.26Z"/>
      <path class="cls-1" d="m711.23,222.79c-17.64-5.67-83.6-78.72-96.54-90.56l-1.17,1.27-1.37,1.49-10.48,11.44c9.79,6.02,16.18,15.38,16.38,25.98,0,.52,0,1.03-.02,1.54,2.83,1.28,5.37,3.04,7.3,5.58,3.6,4.74,4.34,12.39.08,16.77,2.37,1.7,3.96,4.39,4,7.42.04,2.78-1.25,5.28-3.26,7.03,19.95,24.33,41.18,48.61,55.28,54.22,33.36,13.26,64.63,17.4,89.77,21.33,5.46-21.75,14.72-42.27,21.08-54.88-22.76-2.87-55.77-.51-81.06-8.64Z"/>
      <path class="cls-5" d="m617.81,226.47c6.86,17.95,22.36,53.35,36.26,69.66,16.6,19.49,26.02,44.79,26.53,71.24,1.15,59.74-42.95,109.21-98.3,110.27-26.83.52-52.22-10.26-71.57-30.34-19.37-20.1-30.35-47.12-30.9-76.07-.5-25.76,7.54-50.89,22.64-70.75,14.63-19.25,34.05-48.67,35.85-83.66-.67-.21-1.33-.45-1.97-.71-1.57,34.71-20.91,64.01-35.47,83.16-15.37,20.22-23.55,45.79-23.05,72,.57,29.46,11.74,56.96,31.46,77.42,19.29,20.02,44.5,30.97,71.17,30.97.62,0,1.25,0,1.88-.02,56.45-1.09,101.43-51.47,100.26-112.31-.52-26.92-10.11-52.66-27.01-72.5-13.51-15.86-28.62-50.17-35.59-68.24-.73.04-1.47,0-2.19-.12Z"/>
      <path class="cls-1" d="m591.72,255.14c.06.07.11.13.17.2.13-.21.25-.43.37-.65l-.54.45Z"/>
      <path class="cls-1" d="m595.73,251.75c-.61,1.79-1.42,3.54-2.48,5.18,10.55,12.47,21.32,25.38,29.77,39.53,9.83,16.46,15.16,32.55,15.84,47.83.35,7.84-.76,13.89-3.41,18.51-3.13,5.45-8.93,8.8-14.09,8.13-2.92-.38-5.74-2.01-8.03-4.51.08-.13.15-.27.22-.4,4.17-7.74,4.96-16.66,5.65-24.52.74-8.36-2.31-14.14-7.77-14.73-3.59-.38-7.25,1.97-8.93,5.73-1.3,2.93-1.3,6.11-1.29,8.67.01,6.61.02,14.1,2.63,20.99.59,1.56,1.31,3.03,2.15,4.4-3.4,4.15-8.58,7.43-14.13,6.63-3.33-.48-6.16-2.36-8.36-4.71,5.27-7.64,6.95-16.86,7.36-23.8.21-3.43.18-7.42-1.6-11.02-2.18-4.42-6.69-7-10.97-6.27-3.81.64-7.04,3.85-8.24,8.16-.95,3.43-.58,6.88-.25,9.91.69,6.35,1.47,13.54,4.48,19.96.48,1.03,1.01,2.01,1.59,2.95-.12.13-.25.26-.38.38-5.57,5.52-15.56,8.39-22.65,3.64-.9-.6-1.73-1.31-2.5-2.13,5.78-7.17,9.41-16.12,10.23-25.29.47-5.26-.32-9.3-2.43-12.36-1.61-2.34-4.24-4.04-7.04-4.54-2.38-.43-4.7.05-6.54,1.34-3.32,2.34-4.13,6.28-4.62,9.79-.9,6.45-1.84,13.12-.88,19.91.56,3.96,1.79,7.6,3.57,10.71-2.99,2.86-6.21,4.81-9.47,5.71-4.75,1.31-9.75.24-12.72-2.73-2.26-2.26-3.67-5.77-4.29-10.73-2-15.9,4.03-33.61,18.46-54.12,5.45-7.76,10.54-15.76,15.47-23.51,5.45-8.57,10.62-16.69,16.06-24.19-1.3-1.3-2.46-2.8-3.46-4.47l-.46-.34c-5.9,8.01-11.38,16.65-17.2,25.79-4.89,7.69-9.94,15.64-15.31,23.28-15.32,21.8-21.7,40.88-19.5,58.33.8,6.34,2.76,10.99,6.01,14.23,3.26,3.25,8,5.02,12.97,5.02,1.85,0,3.73-.25,5.58-.75,4.01-1.1,7.91-3.37,11.49-6.66,1,1.03,2.09,1.94,3.26,2.72,8.74,5.85,21.64,4.02,30.09-4.25,3.25,3.27,7.2,5.4,11.4,6,7.41,1.07,14.18-2.73,18.77-7.79,3.1,3.04,6.88,5.04,10.82,5.55,7.63.98,15.68-3.48,20.06-11.09,3.24-5.63,4.61-12.75,4.21-21.77-.73-16.28-6.35-33.31-16.68-50.63-9.1-15.24-20.67-28.91-31.86-42.12l-.58.49Zm-48.86,113.17c-.89-2.01-1.52-4.26-1.86-6.67-.84-5.95.03-12.2.88-18.24.32-2.26.77-4.76,2.13-5.72.43-.31.93-.4,1.38-.4.23,0,.45.03.64.06,1.22.22,2.46,1.02,3.16,2.03,1.28,1.86,1.73,4.62,1.39,8.43-.66,7.35-3.37,14.53-7.72,20.49Zm32.84-2.05c-2.58-5.52-3.28-11.9-3.94-18.07-.28-2.62-.58-5.34.06-7.66.46-1.65,1.73-3.55,3.45-3.84.15-.02.3-.04.45-.04,1.66,0,3.37,1.47,4.14,3.05,1.16,2.35,1.15,5.36.99,8.01-.33,5.51-1.53,12.64-5.06,18.76-.03-.07-.07-.14-.1-.21Zm33.51-21.91c-.56,6.3-1.17,13.32-3.64,19.4-.04-.11-.09-.22-.13-.34-2.22-5.86-2.23-12.48-2.24-18.87,0-2.19,0-4.46.78-6.22.56-1.25,1.72-2.21,2.66-2.21.05,0,.09,0,.14,0,2.03.22,2.77,4.41,2.43,8.23Z"/>
      <path class="cls-5" d="m574.45,265.07c1.16.28,2.34.41,3.53.41,5.65,0,11.43-3,14.9-7.99.13-.18.24-.37.36-.56,1.06-1.64,1.87-3.39,2.48-5.18,1.35-3.94,1.77-8.04,1.95-11.51.08-1.56.13-3.14.17-4.71.11-4.06.23-8.25,1.08-12.24-.66-.11-1.32-.22-1.97-.33-.87,4.14-.99,8.39-1.11,12.51-.04,1.55-.08,3.11-.17,4.66-.23,4.41-.85,9.9-3.42,14.55-.12.22-.24.44-.37.65-.21.34-.42.68-.65,1.01-3.74,5.39-10.45,8.17-16.33,6.78-6.5-1.55-10.75-7.59-12.56-12.73-2.15-6.09-2.19-12.7-2.23-19.1l-.06-9.66c0-.87.01-1.57.31-2.08l-1.02-.6c-.3-.01-.59-.03-.89-.05-.41.94-.41,1.96-.4,2.74l.06,9.66c.04,6.56.09,13.35,2.35,19.75.59,1.68,1.34,3.25,2.22,4.7,1,1.67,2.17,3.18,3.46,4.47,2.41,2.41,5.27,4.11,8.31,4.83Z"/>
      <path class="cls-5" d="m543.98,160.39c2.71.45,5.41.9,8.12,1.36,5.49.92,10.99,1.84,16.48,2.75,10.91,1.82,21.81,3.64,32.72,5.47,5,.84,10.76,1.54,15.75,3.56.34.14.67.28.99.43.02-.51.03-1.03.02-1.54-.2-10.6-6.59-19.96-16.38-25.98-6.93-4.26-15.57-6.85-24.95-7.01v-22.36c.53-.15,1.02-.46,1.4-.94.7-.89.88-2.11.47-3.1l-1.87-4.5v-19.15l9.72,16.76c.31.54.6,1.09.88,1.61,1.06,1.99,1.97,3.71,3.52,3.93.88.12,1.72-.26,2.6-1.16l.13-.13.07-.17c1.42-3.3.51-6.44-.37-9.48-.8-2.75-1.63-5.6-.9-8.81.78-.62,1.21-.49,1.36-.44,2.24.69,4.01,7.99,4.86,11.5l.28,1.15c.48,1.94,1.09,3.87,1.67,5.73,1.09,3.45,2.12,6.72,2.45,10.17.32,3.27,3.33,8.22,9.14,14.98l1.37-1.49c-6.48-7.58-8.31-11.58-8.51-13.68-.36-3.66-1.46-7.17-2.54-10.57-.58-1.83-1.17-3.73-1.64-5.61l-.28-1.14c-1.52-6.28-3.15-12-6.22-12.95-.8-.24-2.06-.26-3.52,1.06l-.22.2-.07.29c-.99,3.87-.02,7.22.84,10.17.84,2.88,1.56,5.38.53,7.96-.37.35-.62.46-.76.45-.54-.08-1.4-1.7-2.03-2.89-.29-.54-.59-1.11-.92-1.67l-10.39-17.9c-.35-.6-.7-1.2-1.06-1.82V7.95c0-1.1-.9-2-2-2s-2,.9-2,2v71.71c-1.26-1.46-2.68-2.75-4.34-3.71-1.15-.67-2.55-.57-3.65.25-1.79,1.32-2.05,3.79-.73,6.96l8.72,20.96v6.32c-2.07-3.27-4.19-7.97-6.25-12.54-4.18-9.31-6.95-15.01-10-15.6-.64-.12-1.61-.07-2.57.85l-.08.08c-5.49,6.7.95,17.95,4.4,24,.77,1.35,1.78,2.92,2.85,4.57,2.82,4.38,6.68,10.38,5.94,12.69-.04.13-.1.24-.17.33-4.58-5.1-8.32-11.09-11.11-17.83-.17-.41-.36-.91-.58-1.47-1.58-4.11-3.97-10.31-7.58-9.13l-.26.13c-5.19,3.6-1.57,14.12-.39,17.57,3.89,11.3,8.71,19.92,14.57,27.23-6.27,1.74-11.99,4.63-16.74,8.53-3.48,2.86-6.26,6.11-8.27,9.61.38,0,.76.02,1.15.04,2.13.13,4.25.52,6.34.87Zm32.75-46.66l.03.06c.11.26.07.54-.03.78v-.85Zm-10.88-31.34c-.54-1.3-1.25-3.61.07-4.59.46-.34,1.01-.39,1.47-.13,2.13,1.23,3.83,3.1,5.34,5.22v16.02l-6.88-16.53Zm-17.03,31.07c-2.81-8.17-2.98-13.28-.5-15.18,1.79-.3,4.1,5.69,4.97,7.98.22.58.42,1.1.6,1.52,3,7.23,7.06,13.64,12.06,19.04l.47.5.64-.25c.93-.37,1.58-1.05,1.87-1.95,1.03-3.21-2.63-8.89-6.16-14.38-1.05-1.63-2.05-3.18-2.79-4.48-3.21-5.61-9.17-16.05-4.63-21.69.34-.31.58-.32.76-.29,2.26.43,5.75,8.21,8.56,14.45,2.31,5.14,4.7,10.46,7.08,13.86.28.39.53.88.8,1.38.06.12.12.24.19.35v25.18c-3.13.17-6.19.62-9.14,1.31-5.98-7.28-10.81-15.84-14.76-27.35Z"/>
      <path class="cls-5" d="m622.56,213.59c-5.65-.89-11.3-1.79-16.95-2.7-24.23-3.92-48.44-8.04-72.56-12.59-1.87,1.24-2.91,3.55-2.94,5.81-.04,3.16,2.01,5.94,4.51,7.7,6.02,4.25,14.19,3.53,21.18,3.87,7.25.36,14.48.92,21.69,1.7,7.16.77,14.29,1.76,21.4,2.88,5.86.92,11.69,2.14,17.58,2.84.13.02.24.04.35.08.14.03.27.07.4.12,2.81,1.19,6.56-.27,7.81-3.05,1.05-2.33.32-5.1-1.43-6.85-.29.17-.64.26-1.05.2Z"/>
      <path class="cls-5" d="m532.26,177.63c.31-.21.69-.31,1.14-.23,6.44,1.19,12.88,2.34,19.33,3.48,23.54,4.15,47.1,8.23,70.5,13.12.07.01.12.04.18.06,1.68-1.85,2.19-4.52,1.85-7.04-.5-3.7-2.63-6.72-5.72-8.75-3.26-2.14-7.06-3.19-10.85-3.97-4.42-.9-8.91-1.55-13.36-2.3-9.76-1.63-19.52-3.26-29.28-4.89-4.84-.81-9.68-1.62-14.51-2.43-4.73-.79-9.56-1.96-14.35-2.19-3.58-.17-8.31.78-9.64,4.66-1.36,3.97,2.05,7.88,4.7,10.47Z"/>
      <path class="cls-5" d="m622.38,197.98c-.61-.23-.99-.77-1.06-1.32-6.66-1.38-13.32-2.72-20-4-22.86-4.39-45.83-8.14-68.72-12.37-.15-.03-.28-.08-.4-.13-.01.01-.02.02-.04.03-2.46,1.81-3.82,5.11-3.25,8.13.56,2.95,2.78,5.43,5.62,6.37.53.17.86.57,1,1.02,6.29,1.18,12.58,2.33,18.87,3.46,22.38,4,44.82,7.72,67.28,11.25.19-.36.5-.66.88-.82,5.12-2.13,4.94-9.65-.19-11.62Z"/>
      <path class="cls-1" d="m430.4,249.18c17.17,9.67,34.34,19.34,51.52,29.01,1.68.95,3.2-1.64,1.51-2.59-17.17-9.67-34.34-19.34-51.52-29.01-1.68-.95-3.2,1.64-1.51,2.59Z"/>
      <path class="cls-1" d="m396.96,336.34c14.3,1.62,28.6,3.25,42.9,4.87,1.92.22,1.9-2.78,0-3-14.3-1.62-28.6-3.25-42.9-4.87-1.92-.22-1.9,2.78,0,3Z"/>
      <path class="cls-1" d="m448.17,415.52c-17.22,7.47-34.45,14.95-51.67,22.42-1.77.77-.24,3.35,1.51,2.59,17.22-7.47,34.45-14.95,51.67-22.42,1.77-.77.24-3.35-1.51-2.59Z"/>
      <path class="cls-1" d="m485.26,509.07c7.47-9.75,14.95-19.5,22.42-29.25,1.17-1.53-1.43-3.03-2.59-1.51-7.47,9.75-14.95,19.5-22.42,29.25-1.17,1.53,1.43,3.03,2.59,1.51Z"/>
      <path class="cls-1" d="m622.07,508.88c-2.65-6.8-5.3-13.61-7.96-20.41-.69-1.78-3.6-1.01-2.89.8,2.65,6.8,5.3,13.61,7.96,20.41.69,1.78,3.6,1.01,2.89-.8Z"/>
      <path class="cls-1" d="m672.99,439.17c-.25.86.31,1.53,1.05,1.85,11.12,4.69,22.25,9.39,33.37,14.08.75.32,1.64-.34,1.85-1.05.25-.86-.31-1.53-1.05-1.85-11.12-4.69-22.25-9.39-33.37-14.08-.75-.32-1.64.34-1.85,1.05Z"/>
      <path class="cls-1" d="m735.98,323c1.91-.15,1.93-3.15,0-3-8.12.65-16.25,1.3-24.37,1.95-1.91.15-1.93,3.15,0,3,8.12-.65,16.25-1.3,24.37-1.95Z"/>
      <path class="cls-1" d="m706.82,382.49c8.15-.11,16.3-.23,24.45-.34,1.93-.03,1.93-3.03,0-3-8.15.11-16.3.23-24.45.34-1.93.03-1.93,3.03,0,3Z"/>
      <path class="cls-5" d="m1135.83,886.38c-.61-1.54-2.36-2.29-3.9-1.68l-27.34,10.9,30.76-13.16-.44-.94c-4.92-10.53-12.52-21.17-19.87-31.45-2.57-3.59-5.16-7.22-7.66-10.88l5.77-2.39-101.67-165.77-45.6-192.82c-17.78,2.02-64.76,6.89-96.86,5.96-7.68-.22-14.5-.78-19.87-1.78-36.98-6.92-48-13.95-48-13.95,0,0-.43-2.08-1.18-5.69l-1.61,201.6,31.78,155.35c-13.4-.1-26.8-.2-40.2-.29-42.61-.28-85.21-.47-127.82-.63-34.89-.12-69.78-.21-104.67-.26-2.6-4.61-6.34-8.72-10.69-12.05-11.27-8.63-25.61-12.83-39.51-14.66-24.22-3.18-49.49,1.7-70.79,13.67.13-2.77.08-5.52-.13-8.17-.63-8.08-2.66-16-6.01-23.38-3.12-6.89-7.14-13.64-14.41-16.64-10.62-4.38-23.26-2.6-33.64,2.12-3.39-.84-6.88-1.31-10.33-1.45-10.81-.42-21.7,2.55-30.91,8.22.6-2.14,1.11-4.31,1.47-6.51,3.36-.97,6.62-2.11,9.74-3.3,12.42-4.76,30.38-11.98,32.51-27.03,1.94-13.72-7.64-25.68-18.42-32.78-13.37-8.81-28.73-13.45-40.42-24.85-1.2-1.17-2.36-2.41-3.47-3.68,11.24-.86,22.89-3.1,31.23-10.72,4.45-4.06,7.39-9.8,6.43-15.93-1.01-6.43-6.08-11.58-11.82-14.23-7.14-3.3-15.32-3-22.97-2.35-6.52.55-12.62,1.98-15.16,8.71-4.06,10.79-.01,22.61,6.43,31.86-3.08.15-6.18.23-9.28.3-1.11-1.48-2.33-2.89-3.67-4.21-5.26-5.17-11.73-9.14-18.57-11.84-7.18-2.84-14.51-3.49-22.08-4.46-6.98-.89-15.32-2.88-17.59-10.56-1.33-4.5-.12-9.09,2.5-12.71.72,8.22,4.03,16.22,12.58,18.84,10.53,3.23,23.34-5.33,22.61-16.74-.94-14.63-22.66-15.11-32.27-9.05.05-.57.1-1.14.16-1.7.57-5.12,1.83-10.18,3.32-15.17,2.94.77,6.02,1.31,9.21,1.58,17.76,1.49,33.71-5.75,41.26-17.35,1.04.11,2.08.15,3.13.06,3.2-.28,6.48-1.93,7.8-4.87,1.95-4.35-1.02-9.25-4.11-12.88,3.21-1.8,5.25-5.52,5.06-9.2-.2-3.68-2.63-7.15-6.02-8.6,4.39-.67,7.16-5.74,6.36-10.11-.69-3.77-3.44-6.85-6.76-8.84,2.22-16.63,8.38-31.64,16.07-44.76,6.49,3.11,11.53,5.01,15.59,5.01,1.41,0,2.7-.23,3.9-.71,4.62-1.85,7.42-7.33,10.42-15.56,3.61-9.89,5.84-15.03,7.32-18.43,1.88-4.33,2.4-5.53,2.58-9.44l3.6-5.51c1.35-2.07,2.75-4.2,3.49-5.76,1-2.09.8-3.11.16-4.08-.8-1.21-1.83-2.33-3.49-2.66,9.09-15.31,14.73-32.84,16.26-51.11,2.51-29.97-5.96-59.05-23.84-81.9-17.9-22.87-43.08-36.74-70.92-39.07-26.76-2.24-52.87,6.45-73.9,24.51-.85.73-1.69,1.47-2.52,2.23-2.65,2.42-5.18,4.96-7.57,7.6-.34.37-.67.75-1,1.13-16.36,18.58-26.4,42.32-28.55,68.06-1.91,22.77,2.66,45.37,12.92,64.94-7.76-.93-16.28-2.52-24.78-4.43l-.61,1.88c13.69,3.05,27.46,5.33,38.29,5.33,6.93,0,12.67-.93,16.39-3.19,3.78-2.29,8.78-4.3,13.19-6.07,1.13-.46,2.24-.9,3.3-1.34,4.22-1.74,16.41-1.3,18.29,1.17.14.18.42.56-.3,1.47-.96,1.22-4.99,1.83-8.55,2.37-3.6.54-7.31,1.11-10,2.35l-.54.25-.04.59c-.09,1.21.2,2.13.85,2.73,1.21,1.13,3.24.83,5.59.49.62-.09,1.27-.18,1.93-.26l21.85-2.38c5.03-.55,10.22-1.11,14.81.7.6.24,1.01.77,1.07,1.38.16,1.61-2.18,2.43-3.59,2.77l-33.77,8.2c-1.07.26-1.9,1.1-2.16,2.2-.25,1.03.07,2.03.83,2.69,1.32,1.12,3.12.86,4.7.62.6-.09,1.17-.18,1.7-.19,4.45-.12,10.43-1.4,16.22-2.63,7.47-1.59,15.93-3.4,17.93-1.72.18.15.35.36.35.84-1.25,7.09-13.9,8.55-20.71,9.34-1.59.18-3.55.31-5.62.44-8.3.53-14.31,1.11-16.01,3.75-.36.56-.7,1.5-.22,2.75l.22.58.61.06c7.92.81,15.98.24,23.94-1.7.46-.11,1.02-.27,1.65-.44,2.74-.75,9.08-2.47,10.19-.67.26,3.15-3.94,6.1-12.49,8.76-23.02,7.16-40.44,5.11-61.09-.52-1.97-.54-14.84-2.55-31.13-5.1-5.65-.88-11.89-1.86-18.27-2.87l-.62,1.92c5.94.94,12.17,1.92,18.58,2.92,9.3,1.45,17.84,2.79,23.62,3.74.52.09,1.02.17,1.5.25,3.08.51,5.15.89,5.8,1.06,3.12.85,6.16,1.61,9.16,2.28,6.23,15.97,11.41,32.97,14.25,43.64-2.87-.26-5.92,1.05-7.44,3.53-2.07,3.37-.95,8.3,2.38,10.45-3.09.84-5.51,3.73-5.79,6.92-.29,3.19,1.58,6.46,4.47,7.84-6.22,2.84-6.44,12.35-2.08,17.62,1.49,1.8,3.29,3.22,5.28,4.39-.2.99-.35,1.99-.43,3.01-1.29,15.37,10.59,29.43,28.01,35.07-1.42,4.81-2.62,9.69-3.27,14.63-.23,1.76-.38,3.63-.41,5.53-7.49,7.41-8.22,20.65,1.56,26.8,5.51,3.46,12.42,3.84,18.72,4.53,8.5.93,16.55,3.21,23.94,7.6,4.2,2.5,8.34,5.65,11.66,9.44-10.08.26-20.17.75-29.81,3.8-11.67,3.7-25.16,13.08-24.65,26.88.48,13.25,14.5,17,25.44,15.83,11.97-1.29,25.71-6.37,33.56-15.9,7.13-8.66,6.3-19.07,1.13-27.74,1.36-.03,2.72-.07,4.06-.12,1.77-.07,3.57-.14,5.4-.24.89,1.12,1.81,2.19,2.75,3.21,10.75,11.59,24.82,17.04,38.29,24.63,7.22,4.07,14.07,9.05,18.27,16.37,3.82,6.67,5.64,15.34,1.8,22.42-4.14,7.63-13.42,11.89-20.94,15.41-5.15,2.41-10.54,4.52-16.05,6.14.79-14.05-9.57-25.9-20.28-34.1-5.19-3.97-11.68-6.83-18.31-5.17-5.44,1.36-9.74,5.68-12.01,10.69-5.52,12.18,1.83,24.87,12.89,30.71,10.52,5.56,22.75,4.86,34.21,1.96-.56,2.82-1.41,5.61-2.34,8.36-1.42,1.06-2.78,2.18-4.09,3.38-10.65,9.73-16.93,23.86-17.65,38.21-.65,13.06,3.43,30.35,17.85,34.29,5.85,1.6,12.05.23,16.24-4.27,3-3.23,4.61-7.38,5.34-11.69,7.55,4.28,16.08,6.98,24.59,8.75,11.52,2.39,25.55,4.95,37.09.69-.1,1-.08,2.01.11,3.04.99,5.61,6.05,8.79,11.09,10.43,2.85.93,5.84,1.49,8.88,1.86,9.97,9.02,24.41,12.14,37.3,14.11,17.4,2.66,36.3,3.65,53.58-.35,9.46-2.19,18.68-6.72,25.19-13.77,9.32-1.12,18.63-2.33,27.92-3.41.55-.06,1.1-.12,1.64-.19,3.07.2,6.13.47,9.18.83,8.96,1.08,17.99,3.13,26.24,6.87.95.43,1.9.9,2.84,1.39-15.03,7.48-31.49,11.84-48.08,14.13-35.67,4.92-71.62.5-107.29-1.9-18.52-1.25-37.15-1.97-55.68-.54-9.12.71-18.21,1.93-27.16,3.84-5.56,1.19-12.89,3.47-15.22,9.33-2.4,6.03,3.3,9.69,8.24,11.25,8.04,2.54,16.46,3.99,24.83,4.88,18.46,1.96,37.07.74,55.53-.61,38.72-2.82,77.47-4.43,116.3-4.23,9.87.05,19.73.21,29.6.47,7.6.2,15.72,1.24,23.2-.55,13.7-3.26,16.81-18.79,8.8-29.33-1.93-2.54-4.26-4.71-6.84-6.6,2.49-1.83,4.18-4.2,3.55-7.45-1.28-6.6-8.39-7.89-14.05-7.72-11.82.36-23.57,1.47-35.31,2.84-7.74-.44-15.53-.41-23.31-.14.99-1.8,1.85-3.7,2.51-5.72,2.24-6.86,1.56-13.53-1.04-19.51,11.71.02,23.41.04,35.12.06,42.85.1,85.71.25,128.56.45,36.05.17,72.09.39,108.14.68l17.27,84.42,25.34-3.15c-19.24,10.55-50.18,26.22-72.32,37.13-3.15,1.88-4.53,5.36-3.52,8.88.51,1.77,1.53,3.21,2.88,4.2-.68.55-1.13,1.38-1.14,2.32,0,1.66,1.33,3.01,2.99,3.01l118.8.5h.01c1.65,0,2.99-1.33,3-2.99,0-1.66-1.33-3.01-2.99-3.01l-29.42-.12,33.44-.69-.06-1.03c-.62-11.61-3.69-24.32-6.66-36.61-1.34-5.53-2.69-11.15-3.83-16.7l14.41-1.79-14.03-73.51c7.47.12,14.94.25,22.4.41,7.25.16,14.52.28,21.76.68,1.93.11,1.92-2.89,0-3-14.88-.82-29.83-1-44.75-1.15l-27.25-142.79,11.8-37.77,53.22,88.17,92.38,137.13,25.75-10.68c-13.73,16.9-37.48,44.09-54.46,63.08-2.22,2.92-2.2,6.67.05,9.55,1.13,1.45,2.62,2.4,4.24,2.82-.43.76-.54,1.7-.19,2.58.47,1.17,1.6,1.89,2.79,1.89.37,0,.75-.07,1.11-.21l110.35-44c1.54-.61,2.29-2.36,1.68-3.9ZM364.07,443.25c-.14,4.05-.49,4.86-2.44,9.34-1.49,3.42-3.73,8.6-7.36,18.54-3.33,9.11-5.84,13.01-9.29,14.39-4.26,1.71-10.7-.69-19.69-5.12-8.02-3.95-15.5-9.37-14.38-12.68,1.5-1.65,4.04-1.48,7.57.52,7.83,4.42,11.19,6.08,13.02,4.72.51-.38.76-.93.73-1.56-.14-2.4-5.02-5.71-9.09-8.07-7.63-4.42-7.5-5.84-5.59-10.42,1.8-2.21,9.03,2.35,12.93,4.81,3.69,2.33,4.9,3.05,5.88,2.63.86-.37,1.44-1.2,1.54-2.22.11-1.17-.42-2.33-1.36-2.97l-9.21-6.21c-2.56-2.11-2.73-4.93-2.04-6.87.57-1.6,1.72-2.63,2.92-2.63h.01c2.92,0,3.96.67,6.24,2.14,1.26.81,2.83,1.82,5.19,3.01,3.74,1.88,18.24-5.01,22.01-6.87.73.33,2.55,1.54,2.41,5.54Zm-3.53-7.21c-2.35,1.15-5.04,2.37-7.69,3.47,7.7-8.15,8.81-9,12.73-10.8.07-.03.14-.06.21-.09-1.65,2.55-3.4,5.02-5.24,7.42Zm11.09-6.33c.2.31.42.63-.29,2.12-.68,1.43-2.1,3.61-3.36,5.52l-2.11,3.23c-.52-2.58-1.89-3.85-2.9-4.44,2.01-2.68,3.9-5.45,5.67-8.31,1.53-.05,2.27.79,2.99,1.88Zm-105.83,33.24c3.64-1.13,14.73-4.58,13.86-11.1l-.08-.28c-1.6-3.54-8.22-1.74-12.6-.55-.61.17-1.15.31-1.6.42-7.49,1.83-15.07,2.41-22.53,1.73.01-.17.07-.29.14-.39,1.28-1.99,8.9-2.48,14.46-2.84,2.1-.13,4.08-.26,5.72-.45,5.57-.64,14.76-1.71,19.52-5.93,1.53-1.36,2.6-3.03,2.95-5.13v-.12c.05-1.03-.31-1.89-1.04-2.51-2.13-1.8-7.34-1.19-13.8.08-1.86.36-3.81.78-5.84,1.21-5.7,1.22-11.59,2.47-15.85,2.59-.64.02-1.3.12-1.94.21-1.28.19-2.48.37-3.11-.16-.27-.23-.22-.57-.19-.71.07-.28.28-.62.69-.72l21.82-5.3,11.95-2.9c3.53-.86,5.34-2.6,5.1-4.92-.14-1.37-1.03-2.53-2.32-3.04-5.04-1.99-10.74-1.37-15.76-.83l-14.35,1.56-7.5.82c-.69.07-1.36.17-2,.27-1.61.23-3.43.5-3.94.03-.12-.11-.19-.32-.21-.54,2.4-.95,5.69-1.45,8.88-1.94.76-.12,1.5-.23,2.22-.34,3.52-.57,6.4-1.24,7.61-2.77,1.45-1.85.82-3.25.32-3.91-2.81-3.71-15.93-3.62-20.47-1.88-.06.02-.12.04-.18.07-1.05.43-2.15.88-3.28,1.33-3.37,1.36-7.08,2.85-10.38,4.51-1.93-6.38-3.24-12.63-3.93-18.73-.55-4.94-.71-9.79-.43-14.51.49-8.4,2.38-14.79,5.79-19.52,4.22-5.87,11.34-8.99,17.3-7.59,3.84.9,7.31,3.65,9.74,7.49-.39.49-.76.98-1.1,1.48-4.81,7.07-6.5,15.82-7.99,23.54-1.06,5.47-.45,12.26,4.75,13.36,3.2.68,6.1-1.54,7.45-3.9,1.41-2.46,1.7-5.32,1.96-7.85.66-6.54,1.42-13.95-.41-20.85-.53-1.99-1.28-3.87-2.22-5.58,1.34-1.5,2.92-2.89,4.67-4.06,3.9-2.6,8.63-4.03,13.38-2.84,3.94.99,7.54,3.83,10.13,7.81-2.71,2.86-4.77,6.14-6.34,9.5-2.27,4.85-3.54,9.87-4.23,14.07-.52,3.19-.89,6.91.37,10.31,1.21,3.26,4.49,6.43,8.42,6.18,3.14-.2,6.06-2.6,7.43-6.11,1.18-3.02,1.16-6.34,1.15-9.28,0-1.51-.02-3.03-.05-4.56-.12-5.21-.53-10.48-2.29-15.52-.53-1.52-1.18-2.95-1.93-4.3.54-.52,1.11-1.02,1.71-1.5,6.88-5.54,18.48-7.54,25.99-1.31,1.42,1.18,2.65,2.62,3.68,4.28-.22.21-.44.41-.66.63-6.64,6.46-11.27,15.02-13.03,24.11-.27,1.41-.43,2.7-.49,3.91-.16,2.98.31,5.43,1.45,7.51,1.13,2.07,3.16,3.7,5.44,4.35,1.84.53,3.69.35,5.2-.49.46-.26.87-.58,1.24-.92,1.97-1.8,2.84-4.63,3.48-7.23,1.56-6.32,3.17-12.85,2.92-19.55-.17-4.4-1.22-8.48-3-11.9,3.99-3.41,8.25-5.57,12.43-6.27,5.69-.95,11.4.95,14.57,4.83,2.36,2.9,3.57,7.02,3.7,12.6.3,13.32-4.73,27.22-15.27,42.17-2.83,4.01-6.02,8.09-9.65,12.26-6.32,7.27-12.31,14.85-18.11,22.18-.25.31-.49.62-.73.93-6.29,7.95-12.28,15.48-18.49,22.4-2.37-3.55-5.56-6.22-9.17-7.48-6.58-2.3-14.6.07-19.49,5.76-.63.74-1.2,1.51-1.72,2.3-3.06-4.47-6.13-8.99-9.15-13.58,6.1-.68,12.45-2,19.3-4.13Zm-14.72-94.69c.16-.24.33-.48.51-.72.69,1.37,1.25,2.85,1.66,4.41,1.74,6.55,1.04,13.46.36,20.13-.24,2.33-.5,4.97-1.7,7.06-1.03,1.8-3.18,3.39-5.3,2.94-3.78-.8-4.09-6.44-3.21-11.02,1.45-7.53,3.1-16.07,7.68-22.79Zm31.11.31c.58,1.09,1.08,2.25,1.51,3.46,1.48,4.24,1.95,8.72,2.12,13.21.08,2.08.1,4.16.11,6.22.02,2.89.03,5.87-1.01,8.54-.89,2.29-3,4.67-5.7,4.85-2.96.19-5.46-2.31-6.41-4.88-1.1-2.96-.75-6.35-.27-9.29.64-3.92,1.8-8.58,3.85-13.09,1.44-3.18,3.33-6.29,5.81-9.01Zm33.58,2.04c.09-.08.17-.17.26-.25,1.5,3.06,2.39,6.68,2.54,10.59.24,6.42-1.33,12.82-2.86,19-.62,2.53-1.39,5.07-3.14,6.46-.2.16-.39.31-.62.43-1.34.75-2.73.58-3.67.32-1.74-.5-3.37-1.8-4.23-3.39-.77-1.41-1.16-3.05-1.22-4.99-.05-1.5.11-3.18.48-5.09,1.69-8.69,6.11-16.88,12.47-23.06Zm-100.69,94.62c7.26,1.5,14.32,2.4,21.6,2.4,2.49,0,5.01-.12,7.57-.33,3.38,5.17,6.84,10.25,10.27,15.26-2.23,4.22-3.22,8.9-3.83,12.79-.25,1.58-.46,3.17-.66,4.76-.56,4.25-1.13,8.64-2.5,12.71l1.9.64c1.43-4.25,2.02-8.74,2.59-13.08.21-1.57.41-3.15.66-4.71.78-5,2.2-11.34,6.21-16,4.37-5.08,11.49-7.21,17.31-5.18,6.44,2.25,10.13,8.84,11.44,14.26,1.54,6.41.9,13.13.27,19.63l-.95,9.82c-.07.73-.15,1.56-.54,2.09l1.61,1.18c.71-.97.82-2.14.92-3.08l.95-9.82c.64-6.67,1.31-13.56-.31-20.29-.56-2.31-1.4-4.46-2.47-6.42,6.44-7.13,12.6-14.89,19.08-23.08.21-.26.41-.52.62-.79,5.78-7.31,11.76-14.87,18.05-22.11,3.65-4.19,6.87-8.3,9.72-12.34,10.83-15.35,16-29.66,15.69-43.44-.14-6.04-1.49-10.56-4.15-13.82-3.61-4.43-10.07-6.61-16.45-5.54-4.44.74-8.93,2.97-13.12,6.48-1.11-1.72-2.42-3.23-3.92-4.48-8.3-6.89-21.02-4.75-28.52,1.29-.53.43-1.04.87-1.53,1.32-2.85-4.22-6.79-7.24-11.09-8.32-5.53-1.39-11,.36-15.41,3.43-1.55,1.08-2.96,2.31-4.2,3.63-2.69-4.02-6.47-6.89-10.64-7.87-7.89-1.85-15.42,2.87-19.38,8.36-3.64,5.05-5.66,11.78-6.17,20.58-.24,4.24-.16,8.56.25,12.97.64,6.93,2.08,14.06,4.31,21.35-.44.25-.88.49-1.3.75-4.8,2.91-13.24,3.46-23.37,2.62-.35-.03-.7-.06-1.06-.09-.47-.04-.94-.09-1.42-.14-10.53-19.51-15.25-42.18-13.34-65.04,2.06-24.6,11.44-47.35,26.73-65.37.34-.41.69-.81,1.04-1.21,2.72-3.12,5.62-6.09,8.7-8.9.51-.46,1.02-.91,1.53-1.36,20.79-18.27,46.77-27.09,73.38-24.86,27.27,2.28,51.96,15.89,69.51,38.31,17.57,22.44,25.89,51.03,23.42,80.5-1.54,18.39-7.33,36.01-16.65,51.32-.79.16-1.68.44-2.68.9-4.24,1.94-5.77,3.23-12.83,10.69l-1.81,3h.01s-.02.02-.03.02c-4.45,1.7-8.34,2.8-9.54,2.19-2.27-1.14-3.79-2.12-5.01-2.91-2.38-1.53-3.82-2.46-7.33-2.46h-.02c-2.05,0-3.94,1.55-4.8,3.95-.88,2.46-.72,6.31,2.73,9.14l9.29,6.27c.39.26.53.75.49,1.12-.01.11-.05.35-.21.49-.69-.22-2.6-1.42-4.15-2.4-5.44-3.44-12.89-8.14-15.68-4.2l-.11.19c-2.61,6.25-1.54,8.45,6.39,13.04,6.16,3.57,7.88,5.72,8.07,6.35-1.22.48-7.16-2.88-10.75-4.91-1.61-.91-3-1.43-4.21-1.69-3.06-.65-4.9.46-5.98,1.75l-.15.25c-2.47,5.88,9.87,12.72,15.28,15.39.01,0,.02,0,.03.01-7.65,13.1-13.81,28.07-16.14,44.66-3.95-1.79-8.34-2.37-12.64-2.98-22.97-3.24-40.7-7.62-63-13.99l-2.71-.61c-.24-.14-.49-.26-.74-.37-2.71-10.36-7.86-27.44-14.13-43.69Zm40.16,150.74c6.69-2.78,21.47-3.07,24.3,5.46,2.32,7-2.81,13.71-9.22,16.01-6.48,2.33-13.23-.02-16.76-5.97-2.23-3.76-2.95-8.21-2.95-12.61,1.39-1.2,2.95-2.19,4.63-2.89Zm54.05,59.14c2.78,7.71.53,15.51-5.17,21.2-5.2,5.19-12.2,8.48-19.14,10.66-6.49,2.03-13.65,3.36-20.43,2.06-7.17-1.38-13.06-6.68-12.38-14.48.7-7.98,7.01-14.63,13.68-18.38,12.13-6.8,26.35-7.17,40.05-7.48,1.39,1.99,2.55,4.13,3.38,6.43Zm10.78-9.98c-2.8-3.68-5.13-7.71-6.61-12.09-2.27-6.71-3.93-19.42,3.62-23.51,3.48-1.88,8.11-1.81,11.96-2.03,4.62-.26,9.31-.25,13.82.89,7.63,1.93,15.46,8.38,14.29,17.04-1.04,7.72-8.63,13.04-15.4,15.63-6.88,2.63-14.37,3.58-21.69,4.08Zm314.25,209.09c2.28,8.63-2.24,16.25-10.98,18.11-7.94,1.69-16.7.45-24.73.25-38.52-.94-77.08-.29-115.54,1.96-18.24,1.07-36.46,2.91-54.74,3.39-17.6.46-36.51-.05-53.29-5.99-4.5-1.59-7.6-5.29-3.59-9.38,3.03-3.09,7.42-4.24,11.5-5.11,9.13-1.95,18.4-3.17,27.71-3.84,18.55-1.34,37.17-.54,55.7.73,34.55,2.38,69.31,6.46,103.88,2.08,16.09-2.04,31.95-5.9,46.79-12.52,1.84-.82,4.32-1.74,6.64-2.94,4.92,3.18,9.13,7.46,10.65,13.26Zm-25.59-26.8c4.02-.26,8.59-.98,12.58-.15,2.24.47,4.41,1.55,5.44,3.71,1.46,3.06-.67,4.92-3.03,6.29-8.12-4.93-18.2-7.43-27.46-8.84,4.16-.39,8.31-.74,12.48-1.02Zm-153.28-47.27c14.09-4.91,29.12-7.04,44.02-6.13,14.81.9,30.45,4.59,42.9,12.94,4.53,3.04,8.78,6.88,11.76,11.51-3.2,0-6.4-.01-9.6-.02-26.02-.03-52.03-.07-78.05.06-10.67.05-22.85-.85-33.21,2.66,1.55-3.9,2.46-8.12,2.91-12.36,6.24-3.53,12.84-6.43,19.26-8.66Zm-55.78-42.21c7.59-.45,16.33.72,21.63,6.71,5.8,6.56,9.09,16.03,10.85,24.47,1.14,5.49,1.73,11.84,1.26,18.09-3.33,2.01-6.55,4.19-9.64,6.56-.02.02-.05.03-.07.05-3.8-11.93-9.06-23.38-15.76-33.99-3.93-6.22-8.36-12.17-14.76-16.02-2.05-1.24-4.24-2.24-6.49-3.06,4.16-1.56,8.53-2.53,12.98-2.8Zm26.96,66.31c-.62-2.57-1.32-5.13-2.07-7.67,2.68-2.13,5.52-4.1,8.48-5.92-.61,4.26-1.77,8.39-3.63,12.08-.95.45-1.87.95-2.77,1.51Zm1.14,16.28c-2.32-1.06-5.15-2.41-7.61-4.04.77-.41,1.52-.86,2.26-1.35,1.1-.73,2.1-1.56,3.05-2.42.63,2.67,1.36,5.29,2.3,7.81Zm-95.14-81.74c-9.04,1.55-18.76,1.27-26.91-3.36-6.69-3.8-12.45-10.69-12.46-18.72,0-7.13,4.54-14.91,11.78-16.7,8.46-2.09,16.06,4.35,21.55,9.93,6.1,6.2,12.65,13.17,13.33,22.28.13,1.67.07,3.34-.1,5-2.38.62-4.78,1.15-7.19,1.56Zm15.6,78.29c-5.63,7.76-16.47,6.17-22.49-.24-5.93-6.32-7.63-15.83-7.56-24.21.13-14.39,6.29-28.65,16.92-38.35-.12.36-.24.71-.36,1.07-2.4,7.16-4.39,14.52-3.34,22.13.93,6.72,3.91,13,8.04,18.34,3.52,4.55,7.77,8.24,12.47,11.26-.43,3.56-1.48,6.97-3.68,10Zm3.3-24.52c.31,3.57.71,7.34.63,11.05-7.29-4.98-13.24-11.65-16.28-20.34-4.03-11.54.31-21.92,3.76-32.63,10.89-7.76,25.12-11.38,38.38-9.1-11.38,6.47-20.55,17.14-24.65,29.63-2.31,7.03-2.48,14.09-1.84,21.41Zm45.43,24.56c-8.05-.61-16.19-2.07-23.98-4.2-6.17-1.69-12.34-4.13-17.91-7.46.08-1.16.12-2.32.1-3.47-.1-8.51-1.99-16.84-.2-25.31,1.41-6.64,4.36-12.87,8.4-18.31,4.94-6.66,11.61-12.21,19.15-15.86,1.04.29,2.07.62,3.08.99,8.78,3.21,14.49,9.57,19.4,17.27,4.84,7.6,8.99,15.65,12.32,24.01,1.43,3.59,2.68,7.23,3.8,10.91-4.28,3.19-9.34,7.26-9.82,12.34-.29,3.06,1.02,5.56,3.01,7.62-5.54,1.77-11.6,1.89-17.36,1.45Zm19.97-13.56c1.58-1.7,3.29-3.32,5.08-4.88.7,2.45,1.34,4.92,1.93,7.41-2.68,2.1-5.21,4.97-6.58,8.23-3.11-2.91-4.4-6.5-.44-10.76Zm7.14,23.31c-3.23-1.98-4.53-4.57-4.56-7.26,1.08.64,2.16,1.22,3.17,1.73,2.26,1.16,4.55,2.24,6.87,3.26.98,1.93,2.15,3.77,3.57,5.49-3.24-.59-6.35-1.56-9.04-3.22Zm12.93,3.06c-1.05-1.07-1.97-2.2-2.79-3.38,4.71,1.85,9.52,3.42,14.4,4.74-.11,0-.21,0-.32-.01-3.28-.18-6.87-.24-10.44-.56-.28-.27-.58-.51-.85-.79Zm73.5,16.57c-17.7.97-36.37-.32-53.4-5.49-5.31-1.61-10.6-3.81-15.19-6.99,3.09.19,6.18.27,9.16.4,4.37.19,8.74.27,13.12.28,2.18.37,4.36.7,6.55.98,25.69,3.38,51.39,1.37,76.99-1.6-9.86,8.81-24.12,11.69-37.23,12.41Zm40.66-15.93c-15.08,1.88-30.19,3.51-45.4,3.85-6.37.14-12.75.07-19.12-.27,16.46-.79,32.89-2.23,49.33-3.28,5.21-.33,10.45-.66,15.7-.91-.17.21-.34.41-.51.61Zm6.92-.87c-.91.12-1.82.23-2.73.35.06-.08.12-.17.18-.26.85-.03,1.7-.06,2.55-.09Zm-3.73-3.58c-.15.25-.31.49-.47.74-6.46.28-12.9.69-19.3,1.1-19.49,1.26-38.96,3.06-58.49,3.6-3.92.11-7.84.15-11.77.15-3.45-.59-6.89-1.28-10.3-2.1-7.59-1.81-15.05-4.2-22.23-7.27-1.8-3.81-2.87-7.95-3.83-12.17,1.3-1.53,2.44-3.19,3.41-4.95,5.8-2.5,12.36-3.19,18.59-3.48,4.28-.19,8.58-.18,12.86-.2,10.15-.06,20.3-.07,30.44-.09,20.85-.02,41.7,0,62.54.03.37.76.7,1.53,1,2.32,2.77,7.47,1.58,15.55-2.47,22.31Zm362.08,69.9c2.86,11.83,5.81,24.06,6.54,35.21l-111.62,2.31-7.58-.03c-2.44-.53-3.85-2.4-4.33-4.1-.57-1.99-.22-4.91,2.56-6.57,10.9-5.37,53.9-26.66,76.63-39.54l33.93-4.21c1.15,5.63,2.53,11.32,3.88,16.92Zm106.44,12.16c-2.41.38-4.39-.84-5.46-2.21-1.27-1.63-2.04-4.47-.09-7.05,8.17-9.14,40.62-45.58,56.73-65.93l31.43-13.03c2.58,3.78,5.27,7.54,7.92,11.26,7.08,9.9,14.4,20.14,19.25,30.2l-102.61,43.91-7.16,2.86Z"/>
      <path class="cls-5" d="m804.47,224.15c.71-2.24,1.18-3.71,1.32-4.65.79-5.35-.21-10.61-1.86-15.91,2.41-.82,4.71-1.9,6.82-3.23,8.89-5.58,15.62-14.68,18.97-25.64,1.42-4.64,2.71-9,3.9-13.1.16,1.81.32,3.69.47,5.6,1.52,18.31,2.88,31.51,6.51,34.55.42.35.87.82,1.36,1.42l.98-1.92c-.36-.4-.71-.74-1.05-1.03-1.4-1.17-2.46-5.05-3.31-10.11,19.66-5.12,40.1-22.44,53.28-47.55,14.14-26.94,16.15-55.63,7.21-74.89-.27-11.09-6.47-21.71-17.07-27.15-4.53-2.33-9.36-3.44-14.12-3.47-.94-10.33-7-20-16.94-25.1-12.54-6.44-27.37-3.64-36.71,5.89-9.27-4.02-18.44-5.21-25.23.88-4.93,4.42-6.87,10.86-5.92,17.37-4.32.85-8.35,2.73-11.94,5.95-13.49,12.09-12.41,33.97,2.41,48.86,1.52,1.52,3.05,2.67,4.6,3.54-1.93,3.53-4.47,6.95-8.32,8.56-2,.83-4.2,1.13-6.53,1.44-1.7.23-3.46.46-5.15.93-2.93.81-5.51,2.66-6.72,4.84-.79,1.42-.99,2.94-.56,4.4.74,2.52,2.98,4.03,5.14,5.49.59.4,1.18.79,1.73,1.21,9.49,7.17,6.9,20.9,5.88,24.94-.74,2.93-1.74,5.89-2.7,8.76-2.01,5.96-4.09,12.12-4.04,18.55.08,11.47,7.53,22.84,18.56,28.3,5,2.48,10.66,3.7,16.3,3.7,3.49,0,6.97-.48,10.29-1.41,1.58,5.06,2.53,10.05,1.8,15.03-.11.77-.59,2.27-1.25,4.33-.1.31-.21.66-.31.99l1.34,2.52c.29-.97.57-1.94.88-2.9Zm-28.15-24.05c-10.36-5.13-17.37-15.79-17.44-26.52-.04-6.1,1.98-12.1,3.94-17.9.71-2.1,1.43-4.25,2.06-6.42,3.76,4.11,9.32,6.3,14.86,6.3,3.81,0,7.6-1.03,10.78-3.19.46-.31.58-.93.27-1.39-.31-.46-.93-.58-1.39-.27-7.27,4.93-18.09,3.33-23.64-3.48-.08-.09-.17-.16-.27-.22.02-.08.04-.16.06-.24,2.92-11.59.45-21.69-6.62-27.03-.58-.44-1.2-.85-1.82-1.27-1.96-1.32-3.81-2.57-4.34-4.39-.28-.94-.15-1.91.39-2.87.95-1.7,3.11-3.23,5.51-3.89,1.56-.43,3.25-.66,4.89-.87,2.35-.31,4.79-.64,7.03-1.57,5.28-2.2,8.27-7.19,10.5-11.77,2.19-4.49,8.98-18.96,9.08-19.16,2.12-5.37,8.83-19.34,14.31-19.49.03,0,.05,0,.08,0,1.76,0,3.38,1.59,4.83,4.73,15.02,32.75,27.39,34.68,31.61,34.21.07.72.36,1.32.68,1.98,1.08,2.25,3.3,6.87-.36,26.74-1.01-.34-2.02-.67-3.04-.98-.53-.16-1.09.14-1.25.67-.16.53.14,1.09.67,1.25.01,0,.02,0,.03.01,5.86,1.79,11.82,3.95,14.63,8.89,2.95,5.18,1.15,12.82-4.03,17.03-4.59,3.74-11.5,5.09-18.5,3.61-.02,0-.03,0-.05,0-.54-.12-1.07.23-1.19.77-.11.54.23,1.07.77,1.19,1.35.29,2.69.47,4.02.56-1.61,5.76-3.46,12.08-5.58,19.04-3.21,10.5-9.64,19.21-18.12,24.53-9.57,6-22.98,6.58-33.37,1.43Z"/>
      <path class="cls-4" d="m849.15,482.36c5.37,1,12.2,1.56,19.87,1.78,32.1.93,79.08-3.94,96.86-5.96,4.54-.52,7.18-.85,7.18-.85,0,0-3.21-7.29-7.79-17.63-.91.62-1.84,1.11-2.74,1.43-2.88,1-5.6,1.51-8.16,1.51-1.36,0-2.68-.15-3.94-.44-.07.02-.13.05-.2.08-.95.3-1.92.44-2.92.44-4.48,0-9.31-2.95-13.42-8.33-11.25-14.75-14.82-27.41-11.58-41.05l.04-.16,2.73-4.44,15.61-4.33c-1.7-3.78-3.15-7-4.24-9.37-8.13-17.74-10.62-53.11-10.62-53.11l12.93-46.62c-16.84-8.6-32.63-16.29-39.28-25.42-5.37-7.37-10.8-14.99-13.01-23.92-2.21-8.92-.54-19.56,6.55-26.17,7.55-7.03,19.36-7.72,28.6-4.2,8.94,3.39,15.99,9.99,22.63,16.67-7.35-14.94-26-28.67-71.49-22.66-9.81,1.3-26.74-14.37-26.74-14.37l-3.08,6.05-.98,1.92-24.98,49.04-13.39-25.19-1.34-2.52-3.12-5.87s-2.85,4.81-6.85,12.76c-6.35,12.61-15.62,33.13-21.08,54.88-5.18,20.67-6.92,42.45.58,59.61,6.78,15.5,23.57,94.76,28.17,116.79.76,3.62,1.18,5.69,1.18,5.69,0,0,11.02,7.03,48,13.95Zm7.6-187.44c-6.02,0-10.92-4.9-10.92-10.92s4.9-10.92,10.92-10.92,11.45,5.3,10.89,12.01c-1.4-.16-2.78-.62-3.59-1.06,0-4.06-3.28-7.33-7.3-7.33s-7.27,3.28-7.27,7.3,3.25,7.3,7.27,7.3c1.31,0,2.53-.37,3.59-1,1.5.81,2.71,1.22,3.99,1.53-1.97,1.9-4.62,3.09-7.58,3.09Zm10.11-18.69c1.81-.31,4.81-.31,6.62,0-.81,1.03-1.47,2.22-1.9,3.46-.9-.06-1.9-.06-2.81,0-.44-1.25-1.09-2.43-1.9-3.46Zm-9.49,7.11c0-1.56.75-2.96,2.06-4.12,1.06.59,1.93,1.56,2.4,2.75-.56.47-.84.9-.84,1.37,0,2.5,5.43,3.78,9.17,3.78s9.17-1.28,9.17-3.78c0-.47-.28-.9-.84-1.37.47-1.19,1.31-2.12,2.4-2.75,1.31,1.15,2.06,2.56,2.06,4.12,0,5.21-7.52,7.4-12.79,7.4s-12.79-2.18-12.79-7.4Zm53.33,85.06c1.04-1.62,3.63-.12,2.59,1.51-3.29,5.14-6.14,10.57-8.43,16.22-8.07,19.94-9.82,42.32-4.58,63.21.47,1.88-2.42,2.67-2.89.8-1.52-6.04-2.48-12.22-2.89-18.43-1.45-22.1,4.25-44.65,16.2-63.31Zm-16.2-84.4c0,6.02-4.9,10.92-10.92,10.92-2.96,0-5.62-1.19-7.58-3.09,1.28-.31,2.5-.72,3.99-1.53,1.06.62,2.28,1,3.59,1,4.03,0,7.27-3.28,7.27-7.3s-3.25-7.3-7.27-7.3-7.3,3.28-7.3,7.33c-.81.44-2.18.9-3.59,1.06-.56-6.71,4.87-12.01,10.89-12.01s10.92,4.9,10.92,10.92Zm-70.82,16.42c3.43-17.03,12.95-32.61,26.52-43.41-3.34-4.67-6.68-9.34-10.02-14-.49-.68-.1-1.65.54-2.05l32.48-20.65c-3.54-3.27-7.08-6.54-10.61-9.81-1.42-1.31.71-3.43,2.12-2.12,4,3.7,8,7.39,12,11.09.74.68.48,1.86-.3,2.36-10.93,6.95-21.86,13.9-32.79,20.85l9.92,13.86c.52.72.06,1.6-.54,2.05-3.81,2.89-7.3,6.22-10.43,9.84-11.17,12.95-17.5,29.95-17.32,47.06.02,1.93-2.98,1.93-3,0-.05-5.05.43-10.1,1.43-15.05Zm-37.5-24.91c2.21-2,4.42-4,6.63-5.99-3.15-.22-6.29-.45-9.44-.67-.9-.06-1.8-.92-1.45-1.9,3.63-10.11,7.25-20.21,10.88-30.32.65-1.81,3.55-1.02,2.89.8-3.42,9.52-6.83,19.05-10.25,28.57,3.66.26,7.32.52,10.98.78,1.21.09,2.09,1.63,1.06,2.56-2.71,2.45-5.42,4.9-8.13,7.36,3.53,3.98,6.93,8.08,10.18,12.29,12.68,16.46,23,34.66,30.7,53.95.72,1.8-2.19,2.57-2.89.8-2.15-5.39-4.52-10.7-7.1-15.9-9-18.19-20.48-35.12-34.06-50.2-.52-.58-.62-1.56,0-2.12Zm8.41,110.79c-1.32-1.41.79-3.53,2.12-2.12,9.59,10.18,16.15,23.07,18.64,36.85.34,1.89-2.55,2.69-2.89.8-2.4-13.28-8.61-25.69-17.87-35.52Z"/>
      <path class="cls-1" d="m921.61,215.59c-9.24-3.51-21.06-2.83-28.6,4.2-7.09,6.61-8.76,17.25-6.55,26.17,2.21,8.92,7.64,16.54,13.01,23.92,6.65,9.13,22.44,16.82,39.28,25.42,17.54,8.96,36.22,18.9,46.92,32.48,11.86,15.05,13.55,25.2-29.41,69.88l2.12,3.33c1.02.54,1.81,1.37,2.46,2.07l19.3,21.08c1.11,1.21,2.78,3.04,2.85,5.35.07,2.29-1.39,4.11-2.92,5.65l.89,1.41c85.08-89.24,69.33-105.2,53.64-128.07-26.15-38.11-69.49-55.18-89.66-75.55-.23-.23-.46-.46-.69-.69-6.64-6.68-13.7-13.27-22.63-16.67Z"/>
      <path class="cls-5" d="m980.13,424.16l-19.3-21.08c-.65-.71-1.44-1.54-2.46-2.07-.21-.11-.41-.22-.64-.3-1.64-.57-3.36-.09-4.62.26l-12.43,3.45-15.61,4.33-2.73,4.44-.04.16c-3.25,13.64.33,26.3,11.58,41.05,4.1,5.38,8.94,8.33,13.42,8.33.99,0,1.97-.15,2.92-.44.07-.02.13-.05.2-.08,1.27.29,2.58.44,3.94.44,2.56,0,5.28-.5,8.16-1.51.9-.31,1.83-.81,2.74-1.43,3.39-2.32,6.35-6.49,5.1-10.46-.36-1.16-.94-2.17-1.66-3.05l10.87-10.56c.16-.15.32-.31.48-.47,1.53-1.54,2.99-3.36,2.92-5.65-.07-2.31-1.74-4.14-2.85-5.35Zm-11.67,25.69c1.08,3.44-2.72,8.04-6.59,9.4-3,1.04-5.79,1.49-8.38,1.36,1.39-.98,2.61-2.15,3.74-3.25l10.05-9.76c.51.66.92,1.41,1.18,2.26Zm9.73-15.65l-22.35,21.72c-1.78,1.73-3.8,3.69-6.22,4.45-6.48,2.03-12.47-4.99-14.15-7.19-10.81-14.17-14.29-26.27-11.26-39.22l2.15-3.5,27.28-7.57c1.31-.36,2.47-.64,3.44-.3.87.3,1.61,1.12,2.27,1.84l19.3,21.09c1.2,1.31,2.28,2.61,2.33,4.06.05,1.72-1.35,3.23-2.79,4.63Z"/>
      <path class="cls-1" d="m825.25,315.48c-.18-17.11,6.15-34.11,17.32-47.06,3.13-3.62,6.62-6.95,10.43-9.84.6-.45,1.05-1.33.54-2.05l-9.92-13.86c10.93-6.95,21.86-13.9,32.79-20.85.78-.5,1.04-1.68.3-2.36-4-3.7-8-7.39-12-11.09-1.42-1.31-3.54.81-2.12,2.12,3.54,3.27,7.08,6.54,10.61,9.81l-32.48,20.65c-.64.4-1.02,1.37-.54,2.05,3.34,4.67,6.68,9.34,10.02,14-13.58,10.81-23.09,26.39-26.52,43.41-1,4.95-1.48,10-1.43,15.05.02,1.93,3.02,1.93,3,0Z"/>
      <path class="cls-1" d="m827.33,343.73c.71,1.77,3.61,1,2.89-.8-7.71-19.29-18.02-37.49-30.7-53.95-3.25-4.22-6.65-8.31-10.18-12.29,2.71-2.45,5.42-4.9,8.13-7.36,1.03-.93.15-2.47-1.06-2.56-3.66-.26-7.32-.52-10.98-.78,3.42-9.52,6.83-19.05,10.25-28.57.65-1.82-2.24-2.6-2.89-.8-3.63,10.11-7.25,20.21-10.88,30.32-.35.98.55,1.83,1.45,1.9,3.15.22,6.29.45,9.44.67-2.21,2-4.42,4-6.63,5.99-.62.56-.52,1.54,0,2.12,13.58,15.08,25.06,32.01,34.06,50.2,2.57,5.2,4.94,10.51,7.1,15.9Z"/>
      <path class="cls-1" d="m894.5,431.72c.41,6.21,1.37,12.39,2.89,18.43.47,1.87,3.36,1.08,2.89-.8-5.24-20.89-3.49-43.27,4.58-63.21,2.29-5.66,5.14-11.08,8.43-16.22,1.04-1.63-1.55-3.14-2.59-1.51-11.95,18.66-17.65,41.21-16.2,63.31Z"/>
      <path class="cls-1" d="m815.35,421.02c-2.49-13.77-9.05-26.66-18.64-36.85-1.33-1.41-3.45.72-2.12,2.12,9.26,9.83,15.47,22.24,17.87,35.52.34,1.9,3.23,1.09,2.89-.8Z"/>
      <path class="cls-5" d="m786.59,96.19c-.85-.23-1.55.29-1.85,1.05-1.5,3.9-3,7.8-4.5,11.7-.29.76.32,1.65,1.05,1.85.85.23,1.55-.29,1.85-1.05,1.5-3.9,3-7.8,4.5-11.7.29-.76-.32-1.65-1.05-1.85Z"/>
      <path class="cls-5" d="m807.91,102.93c-1.27,3.98-2.54,7.96-3.81,11.94-.59,1.84,2.31,2.63,2.89.8,1.27-3.98,2.54-7.96,3.81-11.94.59-1.84-2.31-2.63-2.89-.8Z"/>
      <path class="cls-5" d="m119.6,475.24c-13.91-.55-25.9-2.23-36.16-4.47-23.47-5.12-37.72-13.2-44.26-17.7-4.96,15.15-15.09,51.16-10.68,80.96,10.57,71.33,58.68,166.71,58.68,166.71l-68.78,173.74,3.9.93c-1.23,1.83-2.46,3.64-3.69,5.45-6.76,9.95-13.76,20.23-18.2,30.35l-.42.95,24.86,9.82,9.63-6.68,3.65,11.93,67.65,26.71c.96.38,1.93.56,2.89.56,2.32,0,4.5-1.09,5.99-3.11,2.07-2.81,2-6.38-.2-9.13l-47.34-54.43c-.54-.67-1.3-1.45-2.22-2.31l27.98,6.65,78.18-156.41,30.75,150.38,23.02-3.99c-2.63,11.04-5.24,22.37-5.77,32.76l-.05,1.03,26.45.48,6.55-9.51,7.57,9.76,71.95,1.29c.05,0,.1,0,.15,0,3.43,0,6.24-2.11,7.18-5.42.94-3.33-.37-6.62-3.39-8.41l-57.71-31.15,10.33-1.79-98.58-405.59c-10.5,4.49-29.28,9.83-59.26,9.83-3.41,0-6.96-.07-10.66-.22Zm-54.01,413.89l47.34,54.43c1.94,2.42,1.28,5.1.13,6.66-1.17,1.59-3.59,3.04-6.54,1.87l-66.75-26.36-4.17-13.62-11,7.63-21.93-8.66c4.39-9.65,11.1-19.53,17.6-29.09,1.37-2.01,2.75-4.04,4.11-6.08l36.47,8.67c2,1.76,3.8,3.39,4.73,4.55Zm208.99-15.57l59.92,32.34c2.65,1.57,2.98,4.28,2.45,6.12-.53,1.86-2.25,4.04-5.37,3.96l-71-1.28-8.65-11.17-7.5,10.88-23.31-.42c.65-10.2,3.27-21.36,5.86-32.2l47.59-8.24ZM70.37,497.99c-6.74,15.02-21.24,24.04-34.77,32.25-1.66,1-3.16-1.59-1.51-2.59,3.81-2.31,7.62-4.63,11.32-7.12,12.06-8.13,24.04-19.64,25.19-35.03.14-1.92,3.14-1.93,3,0-.32,4.34-1.45,8.51-3.23,12.48Zm115.87-14.05c1.89-.31,2.7,2.58.8,2.89-10.84,1.8-21.79,2.98-32.77,3.51-19.54.95-39.15-.15-58.48-3.18-2.26-.36-4.52-.74-6.78-1.15-17-3.09-33.72-7.74-49.87-13.88-1.79-.68-1.01-3.58.8-2.89,10.15,3.86,20.52,7.14,31.04,9.8,5.57,1.41,11.19,2.63,16.83,3.69,13.38,2.53,26.93,4.11,40.54,4.69,19.35.83,38.77-.32,57.88-3.48Z"/>
      <path class="cls-1" d="m305.25,456.74c5.8-7.33,11.79-14.91,18.11-22.18,3.63-4.17,6.82-8.25,9.65-12.26-5.59-4.35-12-9.32-18.83-14.65-.38.34-.78.66-1.24.92-1.51.85-3.36,1.02-5.2.49-2.27-.66-4.31-2.28-5.44-4.35-1.13-2.08-1.6-4.53-1.45-7.51-4.3-3.39-8.65-6.84-12.97-10.31.03,1.53.05,3.05.05,4.56.02,2.93.03,6.26-1.15,9.28-1.37,3.51-4.29,5.91-7.43,6.11-3.93.25-7.21-2.92-8.42-6.18-1.26-3.39-.89-7.11-.37-10.31.69-4.2,1.95-9.23,4.23-14.07-6.05-4.97-11.86-9.85-17.17-14.47-1.75,1.16-3.33,2.56-4.67,4.06.94,1.71,1.69,3.59,2.22,5.58,1.83,6.9,1.08,14.31.41,20.85-.26,2.53-.55,5.39-1.96,7.85-1.35,2.35-4.25,4.58-7.45,3.9-5.2-1.1-5.81-7.89-4.75-13.36,1.49-7.72,3.18-16.47,7.99-23.54.34-.5.71-.99,1.1-1.48-2.43-3.84-5.9-6.59-9.74-7.49-5.96-1.4-13.08,1.72-17.3,7.59-3.41,4.74-5.3,11.12-5.79,19.52-.27,4.73-.12,9.57.43,14.51,5.5,4.16,11.49,8.47,17.76,12.82,4.54-1.74,17.66-1.83,20.47,1.88.51.67,1.14,2.06-.32,3.91-1.2,1.53-4.09,2.2-7.61,2.77.85.57,1.7,1.14,2.56,1.71l14.35-1.56c5.02-.55,10.71-1.17,15.76.83,1.29.51,2.19,1.68,2.32,3.04.23,2.31-1.58,4.06-5.1,4.92l-11.95,2.9c1.48.96,2.95,1.92,4.42,2.87,6.46-1.27,11.67-1.88,13.8-.08.73.62,1.1,1.48,1.06,2.51v.12c-.36,2.1-1.43,3.78-2.96,5.13,7.71,4.96,15.1,9.72,21.82,14.11.25-.31.49-.62.73-.93Z"/>
      <path class="cls-1" d="m272.81,399.96c.95,2.57,3.45,5.07,6.41,4.88,2.69-.17,4.8-2.56,5.7-4.85,1.04-2.66,1.02-5.65,1.01-8.54-.01-2.06-.03-4.14-.11-6.22-3.18-2.56-6.33-5.12-9.43-7.65-2.05,4.51-3.21,9.17-3.85,13.09-.48,2.93-.83,6.33.27,9.29Z"/>
      <path class="cls-1" d="m230.89,333.98c-7.05-15.84-10.36-35.1-13.12-53.25-.51.45-1.02.9-1.53,1.36-3.08,2.81-5.98,5.78-8.7,8.9-.35.4-.7.8-1.04,1.21.4,11.54-2.91,22.4-12.3,30.33-9.27,7.82-4.35,62.38.33,100.22.36.03.71.06,1.06.09-1.81-14.69-3.67-31.92-4.73-47.93,4.83,6.56,13.83,14.56,25.1,23.22-.4-4.4-.49-8.73-.25-12.97.51-8.79,2.53-15.52,6.17-20.58,3.96-5.5,11.49-10.21,19.38-8.36,4.17.98,7.95,3.85,10.64,7.87,1.24-1.32,2.66-2.56,4.2-3.63-13.07-11.46-22.84-21.18-25.2-26.48Z"/>
      <path class="cls-1" d="m246.61,402.08c2.12.45,4.26-1.14,5.3-2.94,1.2-2.09,1.47-4.73,1.7-7.06.68-6.68,1.38-13.59-.36-20.13-.41-1.56-.98-3.04-1.66-4.41-.18.24-.35.48-.51.72-4.58,6.73-6.22,15.26-7.68,22.79-.88,4.58-.58,10.22,3.21,11.02Z"/>
      <path class="cls-1" d="m304.05,403.76c.87,1.59,2.49,2.89,4.23,3.39.94.27,2.33.43,3.67-.32.22-.12.42-.28.62-.43-3.18-2.48-6.44-5.04-9.74-7.64.06,1.94.46,3.59,1.22,4.99Z"/>
      <path class="cls-1" d="m319.47,466.49c3.59,2.03,9.53,5.38,10.75,4.91-.2-.63-1.91-2.78-8.07-6.35-7.93-4.6-9-6.79-6.39-13.04l.11-.19c2.79-3.94,10.24.77,15.68,4.2,1.55.98,3.46,2.18,4.15,2.4.15-.14.19-.38.21-.49.04-.37-.1-.86-.49-1.12l-9.29-6.27c-3.44-2.83-3.61-6.69-2.73-9.14.86-2.4,2.75-3.95,4.8-3.95h.02c3.51,0,4.95.93,7.33,2.46,1.22.79,2.74,1.77,5.01,2.91,1.2.6,5.09-.49,9.54-2.19v-.02s1.82-3,1.82-3l.08-.14c-2.89-2.54-9.16-7.49-17.42-13.91-2.85,4.04-6.07,8.15-9.72,12.34-6.29,7.23-12.27,14.79-18.05,22.11-.21.26-.42.52-.62.79,3.2,2.1,6.24,4.12,9.07,6.03,1.21.26,2.6.78,4.21,1.69Z"/>
      <path class="cls-5" d="m134.43,168.05c4.76,5.22,10.77,9.35,17.41,11.66,4.28,1.48,8.76,2.2,13.22,2.2,1.14,0,2.27-.05,3.4-.14-1.45,8.09-2.36,15.48-1.98,19.05h0c0,.07,0,.16,0,.24.94-2.3,1.63-4.36,2.09-5.83.11-1.32.28-2.78.48-4.34l.64.16.06-.26.07.3,20.01,5.05h.07c13.71,2.47,25.64,3.7,35.88,3.7,17.6,0,30.19-3.64,38.09-10.94,13.45-12.43,11.44-32.88,9.49-52.65-.97-9.8-1.88-19.06-.79-26.73.3-2.08.85-4.62,1.5-7.55,2.8-12.75,7.48-34.08-1.87-57.71-7.21-18.23-20.96-33.42-35.01-38.68-7.48-2.8-14.8-2.62-21.21.51-8.97-5.45-24.46-7.64-34.87-4.86-8.25,2.2-29.34,9.29-46.95,27.68-17.86,18.63-36.27,38.67-50.02,58.96-16.62,24.53-22.42,43.69-17.75,58.57,4.66,14.84,20.12,24.99,45.88,30.16l15.85,4c-.13.37-.26.74-.39,1.1.05.7.19,2.33.44,4.55,1.97-5.14,4.08-11.35,6.25-18.16Zm18.07,9.77c-13.08-4.54-23.62-16.45-26.24-29.65-2.32-11.69.02-24.48,6.58-36.01l2.78-4.89c6.97-12.26,12.82-22.56,17.83-31.16,1.17,1,2.43,1.94,3.77,2.8.17.11.35.16.54.16.33,0,.65-.16.84-.46.3-.47.16-1.08-.3-1.38-.01,0-.03-.02-.04-.03-7.02-4.5-11.69-11.21-12.49-17.96-.91-7.61,3.77-15.24,10.42-17.03,6.34-1.7,13.04,1.39,19.36,4.71.01,0,.02.01.03.02.49.26,1.09.07,1.35-.42.26-.49.07-1.09-.42-1.35-.71-.37-1.42-.74-2.13-1.1.71-.81,1.41-1.56,2.09-2.22,7.87-7.7,13.16-5.18,24.77.33,2.85,1.35,6.08,2.89,9.77,4.47,20.07,8.57,32.57-3.02,34.7-5.22.73.04,1.38.38,1.98,1.01,3.08,3.25,3.76,13.11,3.06,18.98-.51,4.25-3.53,11.22-5.96,16.82-.97,2.24-1.89,4.36-2.51,6-2.16,5.69-4.05,12.35-1.66,18.62,1.02,2.67,2.72,5,4.37,7.25,1.15,1.57,2.35,3.2,3.26,4.9,1.39,2.59,1.84,5.73,1.15,7.99-.41,1.35-1.19,2.33-2.32,2.93-2.1,1.11-4.74.57-7.54,0-.85-.17-1.73-.35-2.59-.48-10.37-1.53-21.14,4.78-28.81,16.86-2,3.15-3.79,6.51-5.52,9.76-3.47,6.52-7.06,13.27-12.44,18.36-9.49,8.96-24.64,11.93-37.69,7.4Zm-39.78-3.21c-25.04-5.02-39.99-14.71-44.41-28.81-10.72-34.13,41.97-89.12,67.3-115.54,17.27-18.02,37.94-24.97,46.02-27.13,10.13-2.7,25.28-.49,33.76,4.92l.49.31.51-.26c6.1-3.16,12.86-3.38,20.1-.67,13.34,5,26.95,20.08,33.86,37.54,9.12,23.06,4.7,43.21,1.78,56.55-.65,2.97-1.22,5.54-1.52,7.7-1.12,7.91-.2,17.29.78,27.21,1.9,19.29,3.87,39.23-8.86,50.98-12.01,11.1-35.64,13.31-72.23,6.77l-20.96-5.29c.34-2.31.75-4.8,1.21-7.34,7.92-1.05,15.4-4.37,21.02-9.67,5.62-5.31,9.29-12.2,12.84-18.87,1.71-3.22,3.48-6.54,5.44-9.63,2.71-4.27,12.65-18.04,26.83-15.95.81.12,1.62.28,2.48.46,3.02.61,6.14,1.24,8.87-.2,1.59-.84,2.73-2.26,3.3-4.11.85-2.79.35-6.44-1.3-9.52-.98-1.82-2.21-3.5-3.41-5.13-1.64-2.24-3.2-4.36-4.12-6.78-2.15-5.64-.37-11.86,1.66-17.19.6-1.59,1.52-3.69,2.48-5.91,2.48-5.72,5.57-12.84,6.11-17.38.74-6.2.11-16.69-3.6-20.59-1.12-1.18-2.44-1.73-3.93-1.63l-.42.03-.27.32c-.48.57-12.12,13.83-32.72,5.03-3.66-1.56-6.87-3.09-9.7-4.43-11.71-5.57-18.16-8.63-27.02.04-.82.81-1.67,1.72-2.55,2.74-5.48-2.59-11.18-4.4-16.85-2.89-7.7,2.06-12.93,10.49-11.89,19.19.65,5.46,3.59,10.87,8.15,15.27-5.07,8.69-10.99,19.11-18.06,31.54l-2.78,4.89c-6.8,11.95-9.21,25.23-6.8,37.39,1.27,6.41,4.34,12.52,8.6,17.72-1.33,4.2-2.72,8.42-4.11,12.39l-16.07-4.05Z"/>
      <path class="cls-4" d="m169.69,195.02c-1.52,5.17-6.4,19.18-15.65,24.36-3.78,2.12-7.88,2.49-12.17,1.1-12.17-3.93-14.79-33.81-15.13-38.57l-18.28,4.21c-.13.05-11.52,4.31-20.42,9.77,2.64,3.29,3.93,32.87,4.21,37.3.67,10.41.02,15.71-6.5,30.82-5.6,12.98-6.73,95.94-7.7,122.74,5.41.56,11.03,2.3,20.49,6.29,15.16,6.4,62.35,21.39,68.11,22.55l-.75,2.33c8.51,1.9,17.02,3.5,24.78,4.43-10.26-19.57-14.83-42.17-12.92-64.94,2.15-25.74,12.19-49.48,28.55-68.06-1.44-16.79-10.2-34.61-19.27-46.7-8.32-11.09-15.51-39.82-17.35-47.62Zm-1.01,39.12c-3.7,6.66-11.35,11.15-19.05,9.53-5.02-1.05-9.09-5.16-10.33-10.01-.31,8.7-.63,17.41-.94,26.11-.67,18.61-1.34,37.22-2.02,55.83-.68,18.69-1.35,37.39-2.03,56.08-.07,1.93-3.07,1.93-3,0,.38-10.55.76-21.1,1.14-31.65.67-18.61,1.34-37.22,2.02-55.83.61-16.84,1.22-33.68,1.82-50.52-1.09.92-2.3,1.7-3.59,2.28-4.22,1.89-9.2,2.11-13.55.54-4.64-1.67-8.42-5.23-10.8-9.51-5.64-10.12-3.12-22.16,2.47-31.71.98-1.67,3.57-.16,2.59,1.51-2.83,4.84-4.92,10.24-5.25,15.88-.48,8.15,3.24,17.36,11.19,20.7,3.49,1.47,7.53,1.53,11.1.27,1.72-.61,3.32-1.58,4.61-2.87.39-.38.98-1.03,1.41-1.73.01-.31.02-.63.03-.94.02-.44.19-.78.44-1.02-.07-.23-.19-.44-.41-.62-1.46-1.27.67-3.38,2.12-2.12.81.71,1.2,1.62,1.28,2.58.98-.47,2.51.33,2.18,1.73-.88,3.63.76,7.32,3.49,9.73,2.93,2.59,7.03,3.12,10.72,2.12,8.54-2.33,12.47-11.13,12.57-19.36.02-1.93,3.02-1.93,3,0-.05,4.5-1.02,9.02-3.22,12.98Z"/>
      <path class="cls-4" d="m73.37,442.23c-6.12-2.43-11.12-4.44-15.46-6.89-4-1.33-8.07-3.12-11.92-5.53-2.88,6.59-6.22,13.11-10.12,19.52,2.98,2.57,28.13,22.7,83.77,24.92,45.86,1.83,68.64-8.36,76.65-13.1-5.78-.95-14.32-2.28-23.62-3.74-6.42-1-12.64-1.98-18.58-2.92l-1.19,3.67c-17.46-3.54-72.5-13.14-79.53-15.93Z"/>
      <path class="cls-4" d="m194.19,322.53c9.39-7.93,12.7-18.79,12.3-30.33-15.29,18.02-24.67,40.77-26.73,65.37-1.91,22.86,2.81,45.53,13.34,65.04.48.05.95.1,1.42.14-4.67-37.83-9.6-92.4-.33-100.22Z"/>
      <path class="cls-1" d="m119.64,474.25c-55.64-2.21-80.79-22.35-83.77-24.92,3.9-6.41,7.24-12.93,10.12-19.52,3.84,2.4,7.92,4.2,11.92,5.53,4.35,2.45,9.34,4.46,15.46,6.89,7.03,2.79,62.07,12.39,79.53,15.93l1.19-3.67.62-1.92,10.58-32.76.61-1.88.75-2.33c-5.76-1.15-52.95-16.15-68.11-22.55-9.45-3.99-15.07-5.73-20.49-6.29.97-26.79,2.1-109.76,7.7-122.74,6.52-15.11,7.17-20.41,6.5-30.82-.28-4.44-1.57-34.01-4.21-37.3,8.9-5.45,20.29-9.72,20.42-9.77l18.28-4.21c.34,4.75,2.96,34.64,15.13,38.57,4.29,1.38,8.39,1.01,12.17-1.1,9.25-5.18,14.12-19.19,15.65-24.36,1.84,7.8,9.03,36.52,17.35,47.62,9.06,12.08,17.83,29.91,19.27,46.7.33-.38.66-.75,1-1.13,2.39-2.65,4.92-5.18,7.57-7.6.83-.76,1.68-1.5,2.52-2.23-2.78-18.48-5.13-35.59-10.46-46.41-4.26-8.65-8.71-17.46-16.01-23.82-3.67-3.2-11.2-6.38-19.02-8.29-1.07-4.16-1.68-6.89-1.71-6.99l-.4-1.79-.07-.3-.06.26-.44,1.82s-.23.93-.67,2.36c-.46,1.47-1.15,3.53-2.09,5.83-2.49,6.11-6.72,13.98-12.93,17.45-3.53,1.98-7.36,2.32-11.38,1.02-9.43-3.04-12.89-23.69-14.01-33.33-.26-2.21-.39-3.85-.44-4.55-.02-.23-.03-.37-.03-.39l-.04-.59-19.49,4.49c-.72.27-12.72,4.75-21.7,10.5-8,1.11-54.02,12.38-61.58,61.2-4.68,30.26,1.6,128.28,1.41,131.94-1.06,20.82,7.8,33.21,18.83,40.44-2.94,6.73-6.34,13.38-10.34,19.91l-.21.35.3.28c.06.05,1.46,1.34,4.31,3.29,6.54,4.5,20.79,12.57,44.26,17.7,10.26,2.24,22.25,3.92,36.16,4.47,3.7.15,7.25.22,10.66.22,29.98,0,48.76-5.34,59.26-9.83,3.79-1.62,6.5-3.13,8.27-4.24-.48-.08-.98-.16-1.5-.25-8.01,4.74-30.79,14.93-76.65,13.1Z"/>
      <path class="cls-5" d="m203.97,85.64c.24.14.5.2.75.2.52,0,1.02-.27,1.3-.75l7.15-12.29c.42-.72.17-1.63-.54-2.05-.72-.42-1.63-.17-2.05.54l-7.15,12.29c-.42.72-.17,1.63.54,2.05Z"/>
      <path class="cls-5" d="m223.46,95.4c.2.09.41.13.62.13.57,0,1.12-.33,1.37-.88l5.88-12.95c.34-.75,0-1.64-.75-1.99-.75-.34-1.64,0-1.99.75l-5.88,12.95c-.34.75,0,1.64.75,1.99Z"/>
      <path class="cls-5" d="m201.7,133.72c-.13,1.93,2.87,1.92,3,0,.35-5.1-2.83-10.03-7.6-11.85-2.84-1.09-6.08-1.09-9.08-1.13-3.44-.04-6.87.17-10.28.59-1.89.23-1.91,3.24,0,3,2.84-.35,5.7-.56,8.56-.59,2.75-.03,5.66-.09,8.35.52,4.38,1,7.35,4.96,7.05,9.46Z"/>
      <path class="cls-1" d="m168.9,221.17c-.1,8.23-4.02,17.04-12.57,19.36-3.69,1.01-7.79.47-10.72-2.12-2.73-2.41-4.36-6.1-3.49-9.73.34-1.4-1.19-2.2-2.18-1.73-.08-.96-.47-1.87-1.28-2.58-1.45-1.26-3.58.85-2.12,2.12.21.19.34.4.41.62-.25.24-.43.58-.44,1.02-.01.31-.02.63-.03.94-.43.7-1.02,1.34-1.41,1.73-1.29,1.28-2.9,2.26-4.61,2.87-3.56,1.26-7.6,1.2-11.1-.27-7.95-3.35-11.67-12.55-11.19-20.7.33-5.64,2.41-11.04,5.25-15.88.98-1.67-1.61-3.18-2.59-1.51-5.59,9.55-8.11,21.59-2.47,31.71,2.38,4.28,6.16,7.84,10.8,9.51,4.36,1.56,9.34,1.34,13.55-.54,1.29-.58,2.5-1.36,3.59-2.28-.61,16.84-1.22,33.68-1.82,50.52-.67,18.61-1.34,37.22-2.02,55.83-.38,10.55-.76,21.1-1.14,31.65-.07,1.93,2.93,1.93,3,0,.68-18.69,1.35-37.39,2.03-56.08.67-18.61,1.34-37.22,2.02-55.83.31-8.7.63-17.41.94-26.11,1.24,4.85,5.3,8.95,10.33,10.01,7.7,1.62,15.35-2.88,19.05-9.53,2.2-3.95,3.16-8.48,3.22-12.98.02-1.93-2.98-1.93-3,0Z"/>
      <path class="cls-3" d="m872.69,285.1c1.4-.16,2.78-.62,3.59-1.06,0-4.06,3.28-7.33,7.3-7.33s7.27,3.28,7.27,7.3-3.25,7.3-7.27,7.3c-1.31,0-2.53-.37-3.59-1-1.5.81-2.71,1.22-3.99,1.53,1.97,1.9,4.62,3.09,7.58,3.09,6.02,0,10.92-4.9,10.92-10.92s-4.9-10.92-10.92-10.92-11.45,5.3-10.89,12.01Z"/>
      <path class="cls-3" d="m882.96,283.35c0-1.56-.75-2.96-2.06-4.12-1.09.62-1.93,1.56-2.4,2.75.56.47.84.9.84,1.37,0,2.5-5.43,3.78-9.17,3.78s-9.17-1.28-9.17-3.78c0-.47.28-.9.84-1.37-.47-1.19-1.34-2.15-2.4-2.75-1.31,1.15-2.06,2.56-2.06,4.12,0,5.21,7.52,7.4,12.79,7.4s12.79-2.18,12.79-7.4Z"/>
      <path class="cls-3" d="m871.57,279.7c.44-1.25,1.09-2.43,1.9-3.46-1.81-.31-4.81-.31-6.62,0,.81,1.03,1.47,2.22,1.9,3.46.91-.06,1.9-.06,2.81,0Z"/>
      <path class="cls-3" d="m856.75,291.31c-4.03,0-7.27-3.28-7.27-7.3s3.25-7.3,7.27-7.3,7.3,3.28,7.3,7.33c.81.44,2.18.9,3.59,1.06.56-6.71-4.87-12.01-10.89-12.01s-10.92,4.9-10.92,10.92,4.9,10.92,10.92,10.92c2.96,0,5.62-1.19,7.58-3.09-1.28-.31-2.5-.72-3.99-1.53-1.06.62-2.28,1-3.59,1Z"/>
    </g>
  </g>
</svg>